<?xml version="1.0" encoding="UTF-8"?>
<svg width="600" height="600" version="1.1" xmlns="http://www.w3.org/2000/svg" xmlns:cc="http://creativecommons.org/ns#" xmlns:dc="http://purl.org/dc/elements/1.1/" xmlns:rdf="http://www.w3.org/1999/02/22-rdf-syntax-ns#">
 <title>The Tri-Angled Truth</title>
 <metadata>
  <rdf:RDF>
   <cc:Work rdf:about="">
    <dc:format>image/svg+xml</dc:format>
    <dc:type rdf:resource="http://purl.org/dc/dcmitype/StillImage"/>
    <dc:title>The Tri-Angled Truth</dc:title>
    <cc:license rdf:resource="http://creativecommons.org/licenses/by-nc-sa/4.0/"/>
   </cc:Work>
   <cc:License rdf:about="http://creativecommons.org/licenses/by-nc-sa/4.0/">
    <cc:permits rdf:resource="http://creativecommons.org/ns#Reproduction"/>
    <cc:permits rdf:resource="http://creativecommons.org/ns#Distribution"/>
    <cc:requires rdf:resource="http://creativecommons.org/ns#Notice"/>
    <cc:requires rdf:resource="http://creativecommons.org/ns#Attribution"/>
    <cc:prohibits rdf:resource="http://creativecommons.org/ns#CommercialUse"/>
    <cc:permits rdf:resource="http://creativecommons.org/ns#DerivativeWorks"/>
    <cc:requires rdf:resource="http://creativecommons.org/ns#ShareAlike"/>
   </cc:License>
  </rdf:RDF>
 </metadata>
  <path d="m169.52 276.86-62.878 108.91h125.76l3.149 5.454H97.2l69.177-119.82zm264.11-5.45 69.176 119.82h-138.35l3.149-5.454h125.76l-62.878-108.91zM230.82 159.77l69.177-119.82 69.177 119.82h-6.298L299.997 50.86l-62.879 108.91zm97.77 293.57-28.592 49.521-28.59-49.52a57.182 57.182 0 0 0-28.59 49.52 57.182 57.182 0 0 0 57.18 57.182 57.182 57.182 0 0 0 57.182-57.182 57.182 57.182 0 0 0-28.59-49.521zm-52.871 58.885h3.172l4.89 19.343 4.813-19.343h3.14l4.86 19.53 4.86-19.53h3.03l-6.046 23.265h-3.485l-4.89-19.312-4.782 19.312h-3.406l-6.156-23.265zm33.328 0h15.328v2.75h-12.234v6.375h12.234v2.75h-12.234v8.64h12.234v2.75h-15.328v-23.265z"/>
  <path d="M498.08 102.59c-31.58 0-57.182 25.601-57.182 57.181h57.182l-28.59 49.522a57.18 57.18 0 0 0 28.59 7.66c31.58 0 57.181-25.602 57.182-57.182 0-31.58-25.602-57.18-57.182-57.181zm-4.935 25.619h9.187v2.375h-3.047V149.1h3.047v2.375h-9.187V149.1h3.046v-18.516h-3.046v-2.375z" style="color:#000;font-style:normal;font-variant:normal;font-weight:400;font-stretch:normal;font-size:medium;line-height:normal;font-family:sans-serif;font-variant-ligatures:normal;font-variant-position:normal;font-variant-caps:normal;font-variant-numeric:normal;font-variant-alternates:normal;font-variant-east-asian:normal;font-feature-settings:normal;font-variation-settings:normal;text-indent:0;text-align:start;text-decoration:none;text-decoration-line:none;text-decoration-style:solid;text-decoration-color:#000;letter-spacing:normal;word-spacing:normal;text-transform:none;writing-mode:lr-tb;direction:ltr;text-orientation:mixed;dominant-baseline:auto;baseline-shift:baseline;text-anchor:start;white-space:normal;shape-padding:0;shape-margin:0;inline-size:0;clip-rule:nonzero;display:inline;overflow:visible;visibility:visible;isolation:auto;mix-blend-mode:normal;color-interpolation:sRGB;color-interpolation-filters:linearRGB;solid-color:#000;solid-opacity:1;vector-effect:none;fill:#000;fill-opacity:1;fill-rule:nonzero;stroke-width:1;stroke-linecap:butt;stroke-linejoin:miter;stroke-miterlimit:4;stroke-dasharray:none;stroke-dashoffset:0;stroke-opacity:1;color-rendering:auto;image-rendering:auto;shape-rendering:auto;text-rendering:auto;enable-background:accumulate;stop-color:#000;stop-opacity:1;stroke:none;opacity:1"/>
  <path d="M101.92 102.59a57.182 57.182 0 0 0-57.182 57.181 57.182 57.182 0 0 0 57.182 57.182 57.182 57.182 0 0 0 28.592-7.662l-28.59-49.52h57.18a57.182 57.182 0 0 0-57.182-57.181zm-34.234 25.6h9.187v2.374h-3.047v18.516h3.047v2.375h-9.187v-2.375h3.046v-18.516h-3.046v-2.375zm31.453 0h4.125l8.468 23.265h-3.296l-2.282-6.484H96.092l-2.281 6.484H90.67l8.469-23.266zm16.125 0h4.218l6.204 12.953 6-12.954h4.296v23.266h-3.093v-20.047l-6.47 13.64h-1.843l-6.422-13.64v20.047h-2.89V128.19zm-14.14 2.703-4.095 11.421h8.172l-4.078-11.421z"/>
  <path d="M286.104 151.46h-3.297l-2.282-6.484h-10.062l-2.281 6.484h-3.14l8.468-23.266h4.125zm-6.532-9.14-4.078-11.423-4.094 11.422zm27.813 9.14h-3.828l-11.032-20.813v20.813h-2.89v-23.266h4.797l10.062 19v-19h2.89zm25.844-11.61c0 2.115-.464 4.032-1.391 5.75-.917 1.72-2.14 3.053-3.672 4-1.062.657-2.25 1.13-3.562 1.422-1.302.292-3.021.438-5.157.438h-5.875v-23.266h5.813c2.27 0 4.073.167 5.406.5 1.344.323 2.48.771 3.406 1.344a10.389 10.389 0 0 1 3.703 3.953c.886 1.646 1.329 3.6 1.329 5.86zm-3.235-.046c0-1.823-.317-3.36-.953-4.61-.635-1.25-1.583-2.234-2.844-2.953a9.501 9.501 0 0 0-2.922-1.078c-1.03-.208-2.265-.312-3.703-.312h-2.906v17.953h2.906c1.49 0 2.787-.11 3.891-.328a8.747 8.747 0 0 0 3.062-1.22 6.94 6.94 0 0 0 2.594-2.921c.584-1.208.875-2.719.875-4.531zM162.077 362.05h-3.297l-2.281-6.485h-10.063l-2.28 6.484h-3.141l8.468-23.265h4.125zm-6.531-9.141-4.078-11.422-4.094 11.422zm29.312 9.141h-4.015l-7.782-9.25h-4.359v9.25h-3.094v-23.266h6.516c1.406 0 2.578.094 3.516.281.937.177 1.78.5 2.53.969a5.783 5.783 0 0 1 1.97 2.015c.479.803.718 1.823.718 3.063 0 1.677-.422 3.083-1.265 4.219-.844 1.125-2.006 1.974-3.485 2.547zm-7.234-16.72c0-.666-.12-1.255-.36-1.765-.229-.52-.614-.958-1.156-1.312-.448-.303-.979-.51-1.593-.625-.615-.125-1.339-.188-2.172-.188h-3.641v8.781h3.125c.98 0 1.833-.083 2.563-.25a4.147 4.147 0 0 0 1.859-.968 4.04 4.04 0 0 0 1.031-1.5c.23-.573.344-1.297.344-2.172zm25.562 16.72h-15.328v-23.266h15.328v2.75h-12.234v6.375h12.234v2.75h-12.234v8.64h12.234zm219.522.002h-3.297l-2.281-6.484h-10.063l-2.28 6.484h-3.141l8.468-23.266h4.125zm-6.531-9.14-4.078-11.422-4.094 11.421zm24.781 9.14H426.24v-23.266h3.094v20.516h11.625zm17.812 0h-14.718v-23.266h3.094v20.516h11.625z" style="color:#000;font-style:normal;font-variant:normal;font-weight:400;font-stretch:normal;font-size:32px;line-height:1.25;font-family:sans-serif;-inkscape-font-specification:&quot;sans-serif, Normal&quot;;font-variant-ligatures:normal;font-variant-position:normal;font-variant-caps:normal;font-variant-numeric:normal;font-variant-alternates:normal;font-variant-east-asian:normal;font-feature-settings:normal;font-variation-settings:normal;text-indent:0;text-align:start;text-decoration:none;text-decoration-line:none;text-decoration-style:solid;text-decoration-color:#000;letter-spacing:normal;word-spacing:0;text-transform:none;writing-mode:lr-tb;direction:ltr;text-orientation:mixed;dominant-baseline:auto;baseline-shift:baseline;text-anchor:start;white-space:normal;shape-padding:0;shape-margin:0;inline-size:0;clip-rule:nonzero;display:inline;overflow:visible;visibility:visible;isolation:auto;mix-blend-mode:normal;color-interpolation:sRGB;color-interpolation-filters:linearRGB;solid-color:#000;solid-opacity:1;vector-effect:none;fill:#000;fill-opacity:.99;fill-rule:nonzero;stroke-width:1;stroke-linecap:butt;stroke-linejoin:miter;stroke-miterlimit:4;stroke-dasharray:none;stroke-dashoffset:0;stroke-opacity:1;color-rendering:auto;image-rendering:auto;shape-rendering:auto;text-rendering:auto;enable-background:accumulate;stop-color:#000;stop-opacity:1;stroke:none;opacity:1"/>
</svg>
