<?xml version="1.0" encoding="UTF-8"?>
<svg width="512" height="1024" version="1.0" viewBox="0 0 512 1024" xmlns="http://www.w3.org/2000/svg" xmlns:cc="http://creativecommons.org/ns#" xmlns:dc="http://purl.org/dc/elements/1.1/" xmlns:rdf="http://www.w3.org/1999/02/22-rdf-syntax-ns#">
 <title>God</title>
 <metadata>
  <rdf:RDF>
   <cc:Work rdf:about="">
    <dc:format>image/svg+xml</dc:format>
    <dc:type rdf:resource="http://purl.org/dc/dcmitype/StillImage"/>
    <dc:title>God</dc:title>
    <dc:date/>
    <dc:creator>
     <cc:Agent>
      <dc:title>Michael Kirkbride</dc:title>
     </cc:Agent>
    </dc:creator>
    <cc:license rdf:resource="http://creativecommons.org/licenses/by-sa/4.0/"/>
    <dc:publisher>
     <cc:Agent>
      <dc:title>Bethesda Softworks LLC, a ZeniMax Media company.</dc:title>
     </cc:Agent>
    </dc:publisher>
   </cc:Work>
   <cc:License rdf:about="http://creativecommons.org/licenses/by-sa/4.0/">
    <cc:permits rdf:resource="http://creativecommons.org/ns#Reproduction"/>
    <cc:permits rdf:resource="http://creativecommons.org/ns#Distribution"/>
    <cc:requires rdf:resource="http://creativecommons.org/ns#Notice"/>
    <cc:requires rdf:resource="http://creativecommons.org/ns#Attribution"/>
    <cc:permits rdf:resource="http://creativecommons.org/ns#DerivativeWorks"/>
    <cc:requires rdf:resource="http://creativecommons.org/ns#ShareAlike"/>
   </cc:License>
  </rdf:RDF>
 </metadata>
  <path d="m456.153 736.002-4.655-2.618 1.164-56.146 1.455-56.145-12.219-21.818c-8.727-15.71-11.345-22.982-9.309-26.182 4.073-6.4 22.11-4.655 29.964 3.2l6.4 6.4.873 27.927c.582 15.418 1.454 50.618 2.036 78.255l1.164 50.036h-6.11c-3.49 0-8.145-1.454-10.763-2.909zm-105.891-4.945c-5.818-5.527-5.528-7.273 1.454-14.837 7.273-7.563 7.855-7.563 13.382-2.036 5.527 5.527 2.327 17.746-4.945 19.782-3.2.873-7.564-.291-9.891-2.91zm3.782-61.964-4.655-2.91 1.164-46.836 1.454-46.836-4.945-5.818c-7.273-7.855-2.037-15.128 11.345-16.291 17.455-1.455 35.782 11.927 25.31 18.327-1.455.873-2.91 5.527-2.91 10.182 0 4.364-2.618 16.29-5.527 26.473-3.2 10.182-6.4 27.636-7.564 38.69-2.909 28.8-3.781 30.546-13.672 25.019zm-44.801-117.819c-3.49-9.6-4.363-17.745-3.2-29.963 8.437-81.164 10.764-107.637 10.764-131.783 0-15.418.873-32.29 1.746-37.236 2.036-10.182 22.69-35.2 29.09-35.2 6.4 0 4.946 4.073-4.945 13.382-14.545 13.673-20.073 22.69-18.036 29.963 1.163 4.946 2.327 5.528 4.072 2.619 1.455-2.037 1.746-5.819.873-8.437-1.454-5.236 11.055-17.163 17.746-17.163 5.527 0 11.054 7.854 7.272 10.181-2.327 1.455-2.327 3.2 0 5.819 2.037 2.327 2.619 5.527 1.455 7.272-1.164 1.746-.291 4.946 1.454 7.273 2.91 3.491 2.91 5.237 0 8.727-2.618 2.91-2.618 4.364-.29 4.364 4.945 0 3.781 10.473-2.619 20.946-3.2 5.236-5.818 11.636-5.818 13.963.291 2.328 2.037.291 4.073-4.363 4.654-10.764 22.4-26.764 35.491-32.291 16-6.691 29.091-4.946 46.255 5.818 16.872 11.054 22.69 18.618 18.909 25.018-1.746 2.91-5.237 2.036-16.291-5.236-9.891-6.691-15.71-8.728-21.237-7.564-9.018 2.327-32.29 11.927-32.29 13.673 0 .582 7.272 1.454 16 1.454 18.036 0 21.818 1.746 21.818 9.31 0 3.49-3.782 7.272-10.182 10.472-12.8 6.11-14.255 8.146-8.437 13.964 6.982 6.982 11.637 5.527 18.619-5.527 11.636-18.91 22.109-10.182 11.927 9.89-3.49 6.4-6.11 16-6.11 21.528 0 11.927-4.945 27.927-11.054 34.91-4.945 5.526-18.036 6.69-18.036 1.745 0-2.037-2.036-4.946-4.655-6.982l-4.654-3.2 4.654-17.746 4.364-18.036-7.855-8.146c-4.363-4.654-11.636-9.89-16-11.927l-8.436-3.49.873 26.763c.582 16.582-.291 27.054-2.037 27.636-4.363 1.455-9.89-18.618-10.182-35.782 0-7.854-1.454-16.872-2.909-20.072-1.745-3.782-2.327 6.4-1.163 29.963 1.163 27.928.582 35.782-2.328 34.91-7.563-2.619-11.636-24.146-12.509-68.655-.872-43.928-2.618-61.673-6.4-61.673-1.163 0-2.327 19.2-2.618 43.054-.582 25.019-3.49 59.637-6.982 83.2-4.363 29.383-5.236 42.183-3.2 46.546 6.11 12.219 6.982 19.2 2.618 19.2-2.618 0-6.69-5.818-9.6-13.09zm146.328-3.49c-4.363-4.073-1.745-15.419 4.364-19.491 9.309-6.691 15.418-5.819 19.2 2.618l3.49 7.273-9.6 5.818c-9.89 6.109-14.254 6.982-17.454 3.782z" style="stroke-width:2.9091" transform="translate(-147.532 142.544)"/>
  <path d="M376.153 531.202c-10.764-4.946-18.619-15.128-18.619-24.146s1.746-8.436 12.8 3.491l9.6 10.182h15.128c22.109 0 52.655-8.146 52.655-14.255 0-2.618 4.072-10.472 8.727-17.745 4.945-7.273 10.182-18.037 11.927-23.855 2.037-8.145 4.364-11.054 8.437-11.054 12.218 0 3.49 28.218-16.582 54.982-14.546 19.2-63.128 32-84.073 22.4zm105.018-124.51c-.582-2.036-2.618-11.636-4.363-21.236-1.455-9.6-4.655-18.91-6.691-20.946-2.037-2.036-10.182-4.073-18.037-4.363-18.618-.582-33.745-7.273-53.236-22.4-17.164-13.673-23.855-24.728-18.619-29.964 2.328-2.327 4.655-2.327 8.146.873 2.618 2.327 6.982 3.781 9.6 3.2 7.855-1.164 28.218 6.981 45.091 18.327 8.436 5.527 16 10.182 16.873 10.182.873 0 .873-3.2 0-7.273-.873-5.236 0-7.273 3.2-7.273 2.618 0 5.527 1.455 6.69 3.491 1.455 2.036 2.91.873 4.655-3.49l2.619-6.983 4.072 4.364c2.618 2.327 6.11 17.746 8.728 38.691l4.654 34.618-4.654 6.691c-4.946 7.855-6.982 8.437-8.728 3.491z" style="stroke-width:2.9091" transform="translate(-147.532 142.544)"/>
  <path d="M433.171 316.51c-2.036-5.236-1.164-7.854 4.073-12.509 3.782-3.2 14.545-14.546 24.145-25.018 19.491-22.11 23.273-32.873 25.891-76.51.873-14.545 1.746-31.127 2.328-36.654 1.454-25.019 11.636-9.6 16.582 25.018 4.363 30.255 1.745 56.727-7.273 75.346-13.382 27.054-44.8 56.727-59.928 56.727-1.745 0-4.363-2.909-5.818-6.4zm-83.491-11.055c-19.2-14.254-40.146-46.254-38.11-58.763.583-4.655 4.073-.873 14.546 15.418 7.564 11.927 19.491 26.473 26.764 32.582 7.273 6.109 13.382 13.09 13.382 15.127 0 6.4-3.2 5.527-16.582-4.364zm45.673-29.672c0-1.746-7.855-19.491-17.455-39.564l-17.745-36.364 4.654-13.673c2.618-7.854 9.31-18.036 16-24.727l11.346-11.055 9.309 2.037c5.236.873 13.382 4.945 18.327 8.727 4.946 3.782 11.928 7.564 15.71 8.727 4.654 1.455 6.108 3.782 4.945 6.691-.873 2.619.582 6.982 2.909 9.6l4.655 5.237-5.528 11.345c-3.2 6.11-7.854 18.328-10.763 27.055-2.91 8.727-9.019 23.564-13.673 32.873-6.691 13.382-9.6 16.582-15.418 16.582-4.073 0-7.273-1.455-7.273-3.491zm16-40.146c2.909-6.4 6.109-11.636 7.273-11.636 1.163 0 5.236-7.273 8.727-16.291l6.69-16-4.072-4.364c-3.2-3.2-9.6-3.49-28.218-2.036-20.073 1.454-24.146 2.618-25.6 7.272-2.037 7.273 20.363 54.692 25.89 54.692 2.328 0 6.4-5.237 9.31-11.637zm-109.091-22.4c-5.528-30.546-4.655-49.164 4.363-72.146 4.364-11.927 8.146-28.218 8.728-38.982.872-10.181 2.618-25.309 4.363-33.454 3.491-16.873 29.091-60.8 36.073-62.255 6.982-1.455 5.818 3.49-6.69 26.473-20.655 37.818-26.183 70.11-14.837 88.727 7.563 12.51 11.636 11.928 11.636-2.036 0-6.4.873-13.382 1.746-16 3.2-8.436 6.981-1.455 6.981 13.09 0 11.055 1.164 14.255 4.655 14.255 2.618 0 4.073 2.037 3.49 5.237-.872 4.073-4.072 4.945-16.872 4.945h-16l-4.945 8.728c-3.2 5.818-5.237 19.49-6.691 40.727-2.037 36.655-3.2 42.182-8.728 42.182-2.327 0-4.945-6.982-7.272-19.491zm147.2-73.018c-.873-1.455.291-7.564 2.327-13.964 2.328-6.11 4.946-16.582 5.819-22.982l2.036-11.636-7.564 11.054c-7.854 11.346-8.436 11.637-17.163 8.146l-5.819-2.328 11.928-12.8c22.982-25.309 29.672-52.945 18.618-74.473-3.2-6.69-7.273-12.8-9.018-13.963-4.073-2.618-3.782-7.273.872-7.273 3.491 0 16.582 18.036 16.582 23.273 0 1.454 1.455 2.909 2.91 2.909 4.945 0 3.2 25.018-2.619 40.145l-5.527 13.964 5.236 11.346c3.782 7.854 4.946 15.127 3.782 22.4-1.164 8.727-.582 11.345 4.655 14.545 3.2 2.037 6.109 6.11 6.109 8.728 0 4.363-2.618 5.236-15.71 5.236-8.727 0-16.581-1.164-17.454-2.327zm-75.346-36.946c-1.454-25.31-.581-40.436 2.328-54.982 7.854-37.818 11.345-30.255 13.09 29.673l1.455 48.582h7.273c10.473 0 14.545-11.055 16.29-44.218 1.455-26.473-1.454-51.492-9.017-72.146-1.455-4.655-.873-4.364 4.072 1.454 11.928 14.546 16.291 33.746 16.291 74.182 0 20.946-.872 41.31-2.327 45.673l-2.036 7.855-22.982-.582-22.691-.582z" style="stroke-width:2.9091" transform="translate(-147.532 142.544)"/>
  <path d="M63.981 63.996v896.008H448.02V63.996Zm5.762 5.703H442.26v885.145H69.743Z" style="fill:#000"/>
</svg>
