<?xml version="1.0" encoding="UTF-8"?>
<svg width="387.85" height="512" version="1.0" viewBox="0 0 290.89 384" xmlns="http://www.w3.org/2000/svg" xmlns:cc="http://creativecommons.org/ns#" xmlns:dc="http://purl.org/dc/elements/1.1/" xmlns:rdf="http://www.w3.org/1999/02/22-rdf-syntax-ns#">
 <title>Anticipation of Vivec</title>
 <metadata>Created by potrace 1.12, written by Peter Selinger 2001-2015
  <rdf:RDF>
   <cc:Work rdf:about="">
    <dc:format>image/svg+xml</dc:format>
    <dc:type rdf:resource="http://purl.org/dc/dcmitype/StillImage"/>
    <dc:title>Anticipation of Vivec</dc:title>
    <dc:creator>
     <cc:Agent>
      <dc:title>TheMyzel</dc:title>
     </cc:Agent>
    </dc:creator>
    <dc:date>2009-10-31</dc:date>
    <dc:source>https://www.deviantart.com/themyzel/art/The-Anticipation-of-Vivec-142084895</dc:source>
    <dc:description>For the Tamriel Rebuilt project. Two different genders symbolize Vivec's paradoxical nature, as well as the androgynous nature of his anticipation, Mephala, who stands in the center.</dc:description>
    <cc:license rdf:resource=""/>
    <dc:rights>
     <cc:Agent>
      <dc:title>https://www.tamriel-rebuilt.org/content/resource-copyright-and-you</dc:title>
     </cc:Agent>
    </dc:rights>
   </cc:Work>
  </rdf:RDF>
 </metadata>
 <g transform="matrix(.019346 0 0 -.019346 -5.0299 384.21)">
  <path d="m7827 19791c-3-38-15-91-27-118-17-39-20-66-18-128l3-79 38-3c67-4 124-67 162-182 13-36 26-90 30-118 4-36 12-53 21-53 12 0 14 32 14 180 0 162-2 183-18 201-10 10-24 36-31 57-17 53-25 197-13 260l9 52h-164z"/>
  <path d="m7631 19814c-36-13-66-26-68-28-2-1 1-35 6-74 16-124-15-282-62-321-15-11-17-36-17-172 0-99-4-159-10-159s-10 59-10 158c0 148-1 158-21 170-32 20-61 98-73 196l-11 89-54-74-55-74-43-350c-46-368-47-372-170-813-25-90-43-165-41-167s100 79 218 181l215 186 35 203c20 112 39 207 43 211s7-71 7-167c0-260-19-225 193-354 99-60 187-110 196-110s82 43 162 95l147 94 6 96c3 52 9 160 13 240 8 170 11 160 44-122l23-197 209-131c115-72 211-130 213-127 4 4-10 87-90 532-25 138-69 379-98 536l-51 287-44 21-43 21v-75c0-88-16-169-36-186-12-10-13-65-7-370 5-270 3-359-5-359-9 0-12 93-12 359 0 316-2 363-17 397-13 30-17 69-18 162-1 141 7 128-106 173l-65 25-1-105c0-115-12-174-43-214-18-23-20-40-20-206v-181l38-1c20 0 53-5 72-12 27-9 35-17 35-37 0-35-44-54-126-54h-66l-6-76c-11-130-63-262-123-309-120-94-247 53-274 317-21 204 38 441 125 498 24 15 25 21 25 114 0 62-4 100-11 102-14 5-39 101-39 150 0 45-3 45-89 12z"/>
  <path d="m7786 19443c-3-4-3-120 0-258 5-186 4-254-4-259-9-5-12 58-12 248 0 141-4 256-8 256-14 0-49-43-71-88-40-79-61-186-61-309 0-212 57-370 152-419 83-43 175 64 212 248 20 97 21 158 3 158-8 0-22 9-31 19-17 18-17 20 2 39 11 11 25 21 32 24 10 3 9 22-4 88-32 157-100 260-173 260-16 0-33-3-37-7z"/>
  <path d="m1799 18578c23-69 67-142 251-423 122-187 229-347 237-356 8-10 38-20 71-24 31-4 66-12 76-17 11-6 103-75 205-153 173-133 191-150 265-249 84-114 93-138 97-251 2-66 0-76-44-162-26-51-44-93-40-93 5 0 52 18 105 41 114 48 103 21 115 278l8 174 145-136c99-94 152-137 168-137 13 0 22 4 20 9-1 5-66 139-143 299l-140 290-90 28c-49 15-236 89-413 165-295 124-326 140-344 170-11 19-22 36-24 38-2 3-15-6-29-19s-26-22-28-19c-2 2-27 38-57 79-56 79-429 550-435 550-2 0 9-37 24-82z"/>
  <path d="m7242 18301c-133-119-252-226-263-238-20-19-20-22-4-83 9-34 15-63 13-65-2-1-82 71-178 160-96 90-177 161-178 160-2-2 28-48 66-102s84-132 101-174c30-72 35-78 79-97 77-34 106-79 152-236 27-94 41-123 103-212 39-57 72-102 73-101 2 1-15 59-37 127-26 83-46 173-59 270-11 80-22 161-25 180-3 23 6 72 26 140l31 105 107 86c58 47 143 116 188 153l82 67 181-121c163-109 180-123 164-134-11-7-85-46-166-87-81-40-146-75-144-76 1-1 77 22 169 51l167 54 1-27c0-14 7-120 13-236 12-186 13-197 15-100 0 61 4 167 7 236l7 125 180-53c99-29 182-51 184-50 1 2-75 38-170 81-94 43-175 81-179 85-4 3 65 52 154 108l160 103 157-130 157-129 51-163 52-163-10-184c-15-272-11-284 34-102 29 120 44 162 67 190 20 26 31 54 36 91 6 47 15 61 75 130 65 73 71 85 129 240 33 89 59 164 58 166-2 1-68-82-148-186s-148-190-151-190c-4 0-10 42-14 92-4 51-11 100-16 109-8 15-459 299-474 299-4 0-84-48-178-107-95-58-177-106-183-106s-98 59-206 131c-107 73-199 132-204 131-5 0-118-98-252-218z"/>
  <path d="m14075 18236-171-211-656-428-216-67-217-67-32-179c-47-266-58-255 111-114 80 66 147 120 150 120 2 0 14-13 25-28l20-29-68-244 112-144-7 115-7 116 70 127c39 70 71 135 71 145 0 9-7 42-15 72s-13 56-11 57c2 2 27-6 57-17 29-12 61-19 70-17 10 3 168 127 352 276l334 271 103 225c57 124 101 227 99 229s-81-92-174-208z"/>
  <path d="m14065 17948c-366-305-676-570-672-574 1-2 36 2 76 7 72 10 80 14 273 141l200 131 58 86c32 47 128 169 215 269 86 101 155 185 153 187-2 1-138-110-303-247z"/>
  <path d="m1450 18087c145-139 354-269 705-435 154-72 350-168 435-212 85-43 155-78 156-77s-39 54-89 118c-86 109-96 117-152 139-261 98-816 366-1049 507-49 29-92 53-95 53s37-42 89-93z"/>
  <path d="m1320 17986c0-2 125-103 278-224l277-219 389-97c214-53 391-95 393-92 10 10-24 47-52 55-16 5-158 51-315 101s-306 98-333 106c-37 13-244 134-629 371-5 2-8 2-8-1z"/>
  <path d="m9017 17958c-101-257-200-497-240-580-45-97-53-108-76-108-20 0-34 12-59 49l-32 48-57-15c-52-13-63-12-132 6-127 33-249 4-326-78l-30-32 50 30c28 17 81 38 118 46 73 17 232 22 241 7 3-5-38-12-92-15-129-9-197-23-252-52-37-20-40-23-15-17 17 3 41 10 54 15 20 7 217 38 245 38 6 0 4-6-4-13-27-25-162-57-238-57-88 0-87-15 0-24 52-6 78-2 147 19 46 14 94 33 105 42 25 21 23 19-74-107-41-52-75-97-76-99-2-2-50 34-108 79s-106 78-106 75c0-10 201-394 209-399 4-3 70 103 146 236 76 132 144 242 151 245 14 5 94-33 94-46 0-5-7-28-15-51-12-34-34-213-35-278 0-10-5-10-22-1-44 24-79-51-95-203-4-43-10-57-24-61-28-7-49-99-54-231l-4-117-292-368-72 51c-40 28-74 53-76 54-2 2 0 39 4 83l7 80 79 51c43 28 79 52 79 54s-46-9-102-24l-103-27-90 28c-49 15-91 27-92 25-2-2 32-27 76-55 88-58 77-39 108-195 4-23-2-35-33-67-21-21-44-39-51-39-8 0-99 86-203 192l-188 191-7 91c-11 165-31 227-68 213-11-4-15 13-20 76-12 167-73 249-118 159-12-25-14-20-20 69-3 52-14 120-23 151s-16 58-16 61c0 11 124 77 130 70 4-4 54-84 110-178 57-93 114-187 128-209l24-38 99 182c55 100 103 189 106 198 4 8-40-17-97-56-57-40-109-72-115-72s-48 38-95 85-81 85-77 85 26-9 49-21c53-27 203-37 268-18 44 13 43 14-90 20-129 6-190 19-190 42 0 14 191 1 264-18 32-9 61-14 63-12s-25 17-59 33c-62 27-66 28-252 29h-189l-43-50c-35-42-49-51-77-52-32-1-34 2-92 111-195 370-292 542-302 532-11-11 64-228 99-287 21-37 49-100 62-140 15-48 48-114 96-188l73-114-12-81c-26-186-2-432 47-488 24-29 50-22 71 20l20 37 1-45c0-57 26-168 46-197 18-28 50-30 66-3 11 17 14 7 25-76 6-53 19-106 27-120 33-49 65 1 73 114 3 39 9 72 12 71 3 0 24-22 46-48 22-27 66-78 99-115l59-66-48-63c-27-34-52-66-56-71-4-4-85 32-181 81-95 50-251 130-345 179l-173 88 1 161 1 160 19-60c10-33 22-75 25-94l7-33 81 7c44 4 83 9 85 11 7 6-100 358-113 370-6 7-128 42-271 79s-361 94-485 126c-186 50-234 59-275 54-98-12-117-22-179-93-55-65-70-96-257-527-109-253-196-461-194-463s35 8 73 22c164 59 385 73 561 36 51-11 96-18 100-15 4 2 15 22 25 43 20 44 4 39 216 62 47 5 104 12 126 15 41 6 42 5 93-59l51-65-43-34c-23-19-68-53-99-77-32-23-58-46-58-49 0-16 111-102 123-95 6 4 82 56 167 115l155 107 230-78c153-51 230-82 230-91 0-8-47-153-104-322-87-260-106-307-120-302-63 25-314 96-324 92-9-3-11-41-9-139l3-134 67 7c37 4 68 6 69 5s5-59 9-127l7-126 191-198 192-199 327-10c180-5 329-7 333-4 3 3 12 118 20 254 11 181 11 249 3 254-6 4-42 10-81 14-73 7-138 28-138 45 0 18 35 30 126 42 121 16 114 11 114 67 0 27 3 70 6 96l7 46h-120c-74 0-141 6-178 15-221 57-87 154 213 155h92v49c0 26 3 69 6 95l7 46h-44c-46 0-171 16-201 26-31 9-20 33 20 43 20 6 78 13 127 17 50 4 96 11 103 17 8 6 12 6 12 0s70-13 173-16c94-3 189-10 210-17 39-11 49-35 20-44-46-14-169-26-280-26h-123v-32c0-18 3-63 6-99l7-66 61-17c130-37 130-98-1-127l-53-12v-61c0-34 3-78 6-98l7-38h224c375 0 584-37 471-84-57-24-205-38-452-42-132-2-240-5-242-6-3-4 23-509 27-512 2-2 131-1 287 2l283 5 48 51c27 28 98 106 159 174 99 110 112 127 122 176 6 29 21 102 34 162l22 109 40 5c37 5 34 6-36 19-454 83-656 223-511 354 20 18 63 46 94 62 31 15 57 30 57 34 0 3-20 80-45 170s-44 165-42 167c2 3 126 20 362 50l130 17 153-42c84-22 155-41 157-41s24-36 50-80 51-83 57-86c5-4 61-3 124 1l114 7-135 142-135 143-110 43c-61 24-113 46-115 50-2 3 14 29 36 57l40 51-47 49c-110 112-174 259-179 412-2 50-8 87-15 91-8 5-7 9 3 13 8 3 23 32 32 64 9 31 26 74 36 95 11 21 16 38 12 38-5-1-84-42-178-93l-169-93-19-139c-17-136-19-141-52-175-34-35-35-38-35-118 0-45 3-82 6-82 4 0 39 25 78 57 39 31 76 60 82 64 12 10 114-41 114-56 0-5-13-44-29-85l-29-74-277-93-276-92-30 42c-17 23-33 48-36 54-3 7 26 63 63 124l68 111 12-60c14-71 29-102 48-102 21 0 44 69 52 153 6 66 9 74 21 61 48-47 91 34 108 203 6 64 9 71 22 58 49-50 89 43 108 250 7 78-9 284-26 333-10 29-8 33 30 67 46 41 70 104 96 250 15 84 19 93 60 135l44 45 20 140c19 130 21 165 8 133zm-293-750c52-124 43-525-13-581-67-67-98 430-35 581 7 17 18 32 24 32s17-15 24-32zm-1549-92c50-120 36-519-20-575-13-13-17-10-31 24-24 59-34 138-34 286 0 142 9 213 34 274 18 41 31 39 51-9zm-1216-209c31-38 178-276 173-281-3-3-37-6-75-6-68 0-69 0-153 60l-83 61 47 89c47 89 67 106 91 77zm160-23 87-16 47-106c26-59 47-113 47-120 0-10-16-12-61-10l-62 3-74 115c-96 151-96 150-82 150 6 0 50-7 98-16zm2479-9c40-87 42-392 4-477-11-27-23-48-26-48-33 0-71 220-60 345 15 171 51 249 82 180zm-1284-14c59-113 40-506-24-506-42 0-74 248-51 393 13 81 34 142 50 142 6 0 17-13 25-29zm-889-38 40-9 17-79c9-44 14-83 12-87-3-4-38-8-78-8h-73l-42 98c-24 53-45 102-48 108-4 12 36 6 172-23zm242-48c8-3 6-20-7-62l-18-58-110-6-11 64c-18 102-22 97 62 80 39-8 77-16 84-18zm-780-120c40-27 72-52 73-55 0-3-30-24-67-47l-66-41-46 21c-25 12-48 23-51 25-6 5 72 153 79 150 3-2 38-25 78-53zm2609-115c14-122 10-319-7-360l-16-35-13 24c-7 14-13 59-14 100-1 42-5 79-10 83-13 9 9 239 25 269 16 31 24 12 35-81zm-1076 43c18-69 23-235 10-329-19-131-41-139-60-21-21 123 0 397 30 397 4 0 13-21 20-47zm-1630-93c-1-6-170-111-170-104 0 2 21 35 46 73l46 69 39-17c21-9 39-18 39-21zm535-70-59-60h-317l3 27 3 28 200 31c110 17 207 32 215 33 8 0-12-26-45-59zm1013-1876c26-8 10-23-32-29-46-7-103 5-99 21 4 18 82 23 131 8zm1309-5c40-15 13-29-57-29-66 0-92 12-64 29 24 14 85 14 121 0z"/>
  <path d="m8239 17871c-20-4-56-24-80-43-44-37-53-54-176-348-25-59-5-28 96 147l96 168 74 26c74 26 75 26 130 9 53-17 58-21 108-100 71-112 73-111 17 2-48 96-49 97-107 123-59 25-92 29-158 16z"/>
  <path d="m7470 17838c-79-24-80-25-122-96-19-31-43-70-54-87-31-47-1-21 56 49 42 52 63 69 115 91l64 27 80-27 80-26 88-164c48-90 89-162 91-161 1 2-29 79-67 172l-70 168-83 38c-46 20-90 37-98 36-8 0-44-9-80-20z"/>
  <path d="m14270 17736c-87-39-241-132-427-257-76-51-141-72-318-100-75-12-83-16-130-60-27-26-47-50-44-53s102 17 219 45l213 51 178 119c187 125 429 300 413 298-5 0-52-20-104-43z"/>
  <path d="m8445 17546c-16-7-122-46-235-86s-206-74-208-75c-1-1-14-43-29-93l-26-91 28-183c15-101 29-195 32-210l6-28h-166l6 43c3 23 13 128 22 232l17 190-42 75-41 76-187 43c-103 23-223 51-266 62-44 10-81 17-83 15-3-2 114-43 259-91l263-88 25-57c27-63 27-40 5-412l-7-128h235l-6 43c-3 23-16 139-28 257l-21 215 28 59 29 60 214 87c117 49 216 91 219 94 9 9-12 5-43-9z"/>
  <path d="m1562 17478c-45-17-81-32-80-33 2-2 46 2 98 8 97 10 158 7 551-27l155-14 259-101c142-55 259-100 261-98 1 1-13 25-31 53l-33 52-274 66c-224 54-317 71-518 96-135 16-258 30-275 29-16 0-67-14-113-31z"/>
  <path d="m7450 17333c-81-23-127-43-66-29 16 4 66 11 110 17 72 8 89 6 146-13 36-11 81-31 100-43 63-38 65-39 30-1-42 45-116 80-185 88-37 5-72 0-135-19z"/>
  <path d="m3207 17093c3-60 6-109 7-110 1-2 139 57 144 62s-139 155-148 155c-5 0-5-48-3-107z"/>
  <path d="m9298 17035c-97-55-120-72-141-108-30-51-60-132-56-145 2-6 87 41 188 104 174 107 211 126 211 105 0-4-66-70-147-145l-147-138-58 7c-56 7-57 6-64-19-16-64 19-214 72-317 42-80 128-179 155-179 11 0 54 7 96 16 76 15 77 15 148-11 80-29 181-104 213-159 18-31 25-34 54-31 18 2 63 6 100 9s93 13 125 22c62 18 190 77 210 97 7 7 18 49 24 94l12 82-86 194c-50 114-108 266-138 366l-52 170-41 5c-23 3-133 12-246 21-113 8-230 18-260 20-53 5-59 3-172-60zm405-61c37-3 67-9 67-13 0-3-82-66-183-139l-182-133-70 6c-38 4-71 8-73 10-1 1 32 36 75 77 43 40 110 104 148 141 67 65 72 67 110 63 22-3 70-8 108-12zm209-26c9-7 24-40 33-72 21-70 36-54-160-174l-132-82-92 28c-51 15-92 31-92 35 0 5 82 69 182 143 189 138 220 153 261 122zm88-259c14-48 19-84 14-89s-39-17-75-26c-64-17-66-17-147 6-45 13-82 26-82 29 1 6 251 161 261 161 3 0 16-36 29-81zm43-151c4-12 5-24 3-26-7-6-96 20-96 28 0 9 27 16 66 19 15 1 24-6 27-21zm-384-96 265-67 33-105c18-58 32-108 30-111-1-5-560 308-627 352-19 12-25 13 299-69z"/>
  <path d="m3541 16959c-5-13-32-81-60-152-28-70-51-133-51-140s13-26 29-41l30-28 43 23 43 24 3 66c3 60 6 69 37 99 19 19 35 37 35 41 0 3-22 35-50 69-48 60-50 61-59 39z"/>
  <path d="m12702 16881c-28-25-52-49-52-52 0-4 21-12 46-18 45-12 46-13 87-101 23-49 45-90 48-90s11 34 17 76l12 76-47 75c-26 41-50 76-53 78-3 1-29-18-58-44z"/>
  <path d="m3077 16815-197-94-92 34-83-90c-61-65-85-99-89-125-4-19-22-99-40-177-18-79-31-143-27-142 3 0 53 54 111 120 176 200 158 187 390 271l205 75 71 94c40 52 69 97 65 100-9 8-85 29-102 28-8 0-103-43-212-94z"/>
  <path d="m13357 16795-188-53-75 34c-40 18-74 30-74 26 1-4 7-18 14-31 13-23 10-27-65-94-44-39-78-71-77-72 5-4 270-55 298-57 16-1 94 32 196 84 161 82 180 89 355 131 101 25 177 47 169 50-18 6-316 38-345 36-11 0-105-24-208-54z"/>
  <path d="m3700 16727c0-4 50-143 111-309 60-167 125-342 142-390l32-88h58c31 0 57 3 57 7 0 6-389 774-396 782-2 2-4 1-4-2z"/>
  <path d="m12397 16355-217-304-226-437c-197-381-245-484-380-812-84-207-154-385-153-396 0-12 8-41 18-66l18-44 47 79c459 791 439 758 476 768 19 5 40 14 47 20 6 7 100 187 209 401 220 434 205 386 158 506l-17 45 103 230c127 286 140 315 136 315-1 0-100-137-219-305z"/>
  <path d="m7760 16471c-50-56-88-101-83-101s65 18 134 40l125 40 134-40c74-21 135-38 137-36 5 5-169 186-180 186-6 0-28-17-49-37l-38-37-43 42-44 43z"/>
  <path d="m3568 16500c-42-22-79-44-83-50-3-5 13-33 37-61 38-45 51-74 114-267 45-138 75-216 83-214 7 1 39 5 72 9 33 3 62 10 65 15 6 10-197 608-206 608-3-1-40-19-82-40z"/>
  <path d="m12842 16467c-6-7-290-514-632-1127s-630-1127-639-1141l-16-27-89 34c-49 19-91 32-94 29-3-2 16-36 41-74 38-57 59-77 123-115 42-26 82-45 88-43 12 5 1300 2458 1293 2463-14 10-67 11-75 1z"/>
  <path d="m10225 16099c-72-46-248-98-340-100-103-2-102 5-35-154 32-77 62-141 67-142 5-2 41 24 80 57 40 33 74 60 77 60s6-22 6-49c0-28 4-53 10-56 5-3 68-3 140 1l131 7 30 43 29 43-77 156c-43 85-80 155-83 154-3 0-18-9-35-20z"/>
  <path d="m5595 16069c-83-11-200-42-264-70-46-19-47-21-99-141-28-67-50-123-48-126 2-2 24 2 47 8 24 7 82 12 129 13 127 0 239-38 342-116l45-35 52 123c28 68 51 128 51 133 0 6-16 23-36 39l-37 29 23 68c12 37 19 70 15 74-10 11-144 11-220 1z"/>
  <path d="m5895 15997 69-77 28 47c15 27 28 53 28 59 0 11-60 27-150 40l-44 7z"/>
  <path d="m4012 15911c-10-6 7-62 75-249l88-242 50 1c28 0 67 3 87 7l37 7-58 130c-31 72-84 181-117 242l-59 113h-45c-25 0-51-4-58-9z"/>
  <path d="m3785 15893c-11-2-30-6-42-9-13-2-23-9-23-15 0-20 92-302 122-375l30-72 81-4c45-2 83-3 85-2s-33 111-79 243l-82 241-36-1c-20-1-45-3-56-6z"/>
  <path d="m6279 15843c-46-35-46-35-138-292-73-202-101-268-132-308-56-74-60-118-21-219 29-76 78-291 69-300-2-3-23 27-46 66-36 60-46 70-69 69-71-3-66 5-183-293-60-154-109-281-109-283s40-3 89-3c156 0 339 48 476 125 132 74 136 78 239 282 68 135 113 210 159 266 71 86 78 109 76 236-2 123 1 122-119 35-58-42-112-82-121-90-10-9-27-67-44-153l-27-138-72-40c-47-27-73-37-77-29-7 12-109 384-109 396 0 4 60 133 134 285 91 187 144 286 163 302l28 23-45 40c-69 62-69 62-121 23z"/>
  <path d="m1720 15815c0-22 60-140 124-244 42-67 76-125 76-127s-17-4-38-4-41-3-45-6c-3-4 7-32 23-63 21-42 54-79 130-146 86-76 141-140 128-149-2-2-18-7-37-12l-34-9 88-54c87-54 88-55 125-135l38-81-8-145c-7-137-10-151-48-249-23-57-44-106-47-109s-19 2-36 12-31 16-33 14c-1-1 1-66 5-143 8-139 8-141-26-273-21-80-34-153-34-185l2-52 6 50c4 28 29 108 55 178l49 128-16 93c-10 51-17 103-17 115 0 24 5 25 100 4 21-4 19-1-12 21l-38 27 27 42c14 23 49 76 76 117l50 74-22 142c-13 89-33 174-53 227-30 80-34 85-90 121-52 34-71 56-50 56 4 0 18 9 32 19l24 19-34-1c-33-2-34-1-45 48-5 28-13 55-17 61-4 7-47 39-96 72-74 51-90 67-100 99-10 31-9 40 4 53 14 13 17 13 35-9 10-13 19-21 19-19 0 3-24 61-54 129s-53 125-52 127c5 4 321-151 424-208 50-28 92-49 92-47 0 11-255 186-420 289-204 126-230 141-230 133z"/>
  <path d="m5232 15716c-30-7-60-20-67-27-15-16-156-341-150-347 2-2 103 57 225 132s227 136 233 136c5 0 35-19 65-42 50-37 61-41 116-42 57-1 61 1 70 26 8 23 6 30-15 47-49 42-119 82-176 103-73 26-225 33-301 14z"/>
  <path d="m10273 15693c15-2 37-2 50 0 12 2 0 4-28 4-27 0-38-2-22-4z"/>
  <path d="m10090 15659c0-103 25-398 36-419 7-14 34-52 60-84l47-59 14 34c8 19 19 45 24 59 10 23 13 19 69-68 69-107 43-100 272-77 160 17 258 31 267 40 2 3-7 29-21 58-21 43-113 153-223 266l-23 24-37-72c-27-54-40-71-51-67-9 3-27 9-40 12l-24 6v348h-24c-18 0-40-17-77-60-52-60-63-67-87-51-11 6-6 21 23 65l36 56h-38c-21 0-75 3-120 7-83 6-83 6-83-18z"/>
  <path d="m9533 15663c-47-4-50-9-29-39 9-11 12-30 9-48-5-23-3-28 8-23 8 3 55 22 104 42 83 34 104 48 105 68 0 7-116 7-197 0z"/>
  <path d="m7815 15633c-16-2-41-6-55-9l-25-6 23-9c12-5 65-12 117-15l95-7v27c0 25-1 26-62 25-35-1-76-4-93-6z"/>
  <path d="m7990 15615v-28l173 5c174 6 240 16 201 33-10 4-99 10-196 13l-178 5z"/>
  <path d="m9680 15593c-8-3-52-21-97-40-74-31-82-37-87-66-31-184-68-439-63-443 3-4 44-9 90-11 97-6 88-14 107 97 6 36 27 148 46 248 43 231 43 229 4 215z"/>
  <path d="m8574 15465c-108-65-129-116-73-180 70-79 335-167 627-209l42-6v102l-147-7-148-7-97 130c-58 78-101 146-108 171-6 23-16 41-23 41s-40-16-73-35z"/>
  <path d="m2380 15424c6-14 8-29 5-34s-1-11 4-14 19-38 32-78l24-73 5 64 5 65 113-151 112-151v-577l108-113c103-109 109-114 167-127 33-7 61-12 63-11 1 2-22 19-52 39-48 32-63 51-135 176l-82 141-9 102c-5 57-12 167-16 246l-7 143-100 159-101 159-66 30c-37 17-69 31-73 31s-2-12 3-26z"/>
  <path d="m4261 15399c-35-4-65-10-68-13-2-2 66-197 153-432 224-613 226-620 216-609-4 6-120 242-257 526l-248 517-81 5c-44 2-83 3-85 1s33-90 78-196l81-193v-524l-32-5c-18-3-55-8-81-11-44-6-70-26-54-42 3-3 42-10 85-16l80-10-6-229c-4-168-2-228 7-228 8 0 11 63 11 230v230h170v-803l-25 27c-22 24-28 26-41 15-38-32-59-175-45-303 15-128 48-177 85-124 15 20 16-16 16-415 0-240 4-437 9-437 16 0 21 194 21 879 0 383 3 800 7 928l6 231 30 5c35 5 27 16 152-222l90-171h40c22 0 63-3 91-6l52-7-15-44c-14-41-14-47 8-99l22-56 44 5 43 5v-90c0-85-1-88-19-78-57 30-121-6-161-91-79-167-59-426 41-531 37-40 40-41 89-35l50 6v-586l-60-16c-47-13-60-21-60-36 0-20 35-36 90-43 24-3 25-6 25-68v-65l-116-6c-114-7-168-21-177-47-7-23 66-43 184-49l114-6v-89c0-52 4-88 10-88s10 36 10 89v90l58 6c164 18 170 75 10 91l-68 7v124l96 6c100 7 149 22 149 47 0 26-57 44-152 48l-93 4v611l30 61c16 33 34 85 40 115 23 126 4 290-46 381-26 47-27 54-20 142 3 50 8 93 10 95s43 9 92 15 93 15 98 19 5 31 2 61c-7 50-13 59-100 153l-93 99 9 46c8 45 4 56-81 251-410 934-419 954-437 955-11 1-48-2-83-7zm-97-659c53-125 66-165 66-207v-53h-173l7 92c3 50 6 157 6 237 1 131 2 143 14 116 8-16 44-100 80-185zm116-252c0-5-4-8-10-8-5 0-10 10-10 23 0 18 2 19 10 7 5-8 10-18 10-22zm-52-50c3-16-6-18-77-18-44 0-83 5-86 10-14 23 9 31 83 28 64-3 77-6 80-20zm-178-4c0-14-8-16-46-10-26 3-56 6-68 6-17 0-18 2-6 10 8 5 39 10 68 10 42 0 52-3 52-16zm258-1c2-8-6-13-22-13-17 0-26 5-26 16 0 19 41 16 48-3zm490-819c22-15 22-17 22-299s0-284-22-299c-35-25-67-19-103 17-117 117-101 514 23 582 35 19 53 18 80-1zm-596-31c21-60 17-287-5-338l-18-40-17 30c-14 24-17 58-17 180 1 144 11 205 34 205 5 0 15-17 23-37zm682-134c9-37 16-99 16-137 0-69-32-218-50-236-7-7-10 74-10 235 1 212 2 242 15 225 8-10 21-49 29-87zm154-1085c59-17 5-34-118-37l-75-2-3 29-4 29 89-6c48-4 98-10 111-13zm-218-15c0-19-4-21-41-16-22 3-44 8-47 12-11 10 21 25 56 25 26 0 32-4 32-21zm-2-226c-3-27-6-28-62-31-67-3-184 12-199 27s66 29 171 30l93 1zm163 8 24-9-26-10c-14-6-50-12-80-14-53-3-54-3-57 26l-4 29 59-6c33-4 70-11 84-16z"/>
  <path d="m5190 15286c-192-121-195-123-228-184l-32-61 56-60c70-76 193-141 269-144l48-2 32 101c47 149 39 137 80 120l36-15 49 106c28 58 50 109 50 114 0 4-16 13-35 19-24 8-47 29-77 70-24 33-45 59-48 59s-93-55-200-123z"/>
  <path d="m7702 15348c-74-10-137-37-137-58 0-30 92-53 242-58l141-4 4 61c2 44-1 62-10 66-21 8-169 4-240-7z"/>
  <path d="m8003 15300c4-29 9-55 12-58 11-11 120 33 123 49 3 17-42 40-107 54l-34 7z"/>
  <path d="m9200 15112v-48l90-10c50-5 90-6 90-3 0 9-119 86-152 98l-28 11z"/>
  <path d="m13015 14888c-74-146-123-228-154-261-24-26-46-46-48-44s6 48 17 102c11 53 20 103 20 110 0 9-32-3-89-33-73-39-112-70-225-179l-136-132-81-187c-69-161-90-200-149-276-39-48-68-88-65-88s53 36 110 81l105 80 116 358 71 79c52 58 95 93 164 134 105 63 101 64 114-26 7-43 5-50-21-78l-29-32 45 33c25 18 62 44 82 58 21 14 52 49 69 77s59 88 93 134l61 83 3-95c2-83 5-95 21-98 17-3 14-16-35-143-47-120-60-144-89-164-44-30-44-41 0-41 20 0 35-5 35-12 0-6-29-99-65-205l-66-195 15-156c30-305 34-367 24-379-15-18-3-16 43 8 23 11 44 18 47 14 4-3 12-25 19-48 9-31 10-87 2-240-6-109-8-201-6-203s14 91 25 208l22 213-23 110-24 110-13-42c-7-23-26-57-41-75l-28-33-1 50c0 28 5 145 11 260l12 210 89 274c49 151 92 281 96 290 4 11-5 8-29-10-19-14-41-29-49-34-16-10-18-13 34 66 12 20 55 217 56 258 0 3-13-8-30-24-35-33-36-28-15 70 15 74 18 175 7 238-7 37-8 35-117-175z"/>
  <path d="m9156 15032c8-15 27-40 40-57l24-30-22 52c-12 29-29 54-40 56-17 5-17 4-2-21z"/>
  <path d="m10750 15045c-47-7-135-17-197-21-61-4-117-10-124-14-8-6 27-70 121-216 73-115 134-210 135-212 2-2 42 4 89 14l85 17-36 72 55 147 55 148-18 40c-21 46-22 46-165 25z"/>
  <path d="m9210 15039c1-32 41-99 95-157 112-122 285-212 520-271 97-25 214-45 221-38 2 2-18 61-46 130-42 105-49 133-44 169 7 55-15 122-42 126-17 2-23-8-40-65-17-60-24-71-69-105-30-23-57-36-70-33-11 2-36 6-56 10-33 5-38 11-61 64-21 47-24 67-18 99l7 41-61 5c-34 3-117 11-184 17-68 5-130 13-138 16s-14-1-14-8z"/>
  <path d="m4872 14931c-23-43-42-85-42-93 0-28 105-183 173-255 66-69 164-150 171-142 3 3 55 163 110 335 6 20 1 23-46 34-89 20-194 78-259 142-32 32-60 58-62 58s-22-35-45-79z"/>
  <path d="m8085 14990c-133-8-220-24-210-39 16-27 118-36 415-36s420 10 420 35c0 16-75 30-221 40-158 11-211 11-404 0z"/>
  <path d="m9321 14796c30-43 119-170 199-283l145-205 189-82c104-45 192-88 197-96 4-8 11-37 16-65 8-50 8-50 54-58l46-9 13-69c6-39 10-73 7-76-5-4-200 97-406 209-29 16-54 28-55 26-2-2 22-64 51-139l55-137 116-5c137-5 220-28 300-82 58-40 112-114 112-155 0-17 13-38 35-60 19-19 35-30 35-26 0 5-18 68-41 140-35 114-46 136-80 169-26 26-39 47-39 65 0 15-3 52-7 82-6 53-5 54 12 40 23-19 33-45-102 292l-107 268-36 6c-318 50-526 132-698 273l-65 54z"/>
  <path d="m6662 14590c-1-135-5-389-9-566l-6-320 192-162 163 47 163 46 153 230 152 230-2 100-3 100-310 10-57 39-58 39v68c0 59-3 70-21 79-11 7-23 9-26 7-3-3-7-132-10-286-4-155-7-280-9-279-1 2-7 113-14 248-6 135-13 259-16 277l-5 32-174 6-5 97c-8 163-20 121-21-78-1-109-5-176-9-159s-8 56-9 87c-1 47-4 58-21 63-15 5-20 16-21 43-1 20-5 84-9 142-5 86-7 60-8-140zm237-906c14-13-24-25-69-22-58 3-79 24-33 31 28 4 94-2 102-9z"/>
  <path d="m4770 14740-40-79 118-97c64-54 120-100 124-104 4-3 4-72 0-153l-7-147 90-102 57 178 57 179-23 20c-13 11-49 40-81 65-68 53-170 178-215 261-17 33-33 59-35 59-3 0-23-36-45-80z"/>
  <path d="m10956 14734c-15-41-29-81-33-89-4-12 6-11 49 4 96 34 91 25 55 97-17 35-34 64-38 64-3 0-18-34-33-76z"/>
  <path d="m9043 14748c-40-21-42-23-48-82-17-174-15-166-41-166-22 0-24-4-24-44 0-35-4-45-20-49s-21 3-31 52c-14 68-28 99-29 60 0-35-28-343-36-399-7-44-7-42-33 70l-27 115-192 3-192 2v-180l219-273 219-274 58-6 59-5 82 87 82 86 1 80c0 111 18 674 25 823 7 139 7 139-72 100zm-78-1033c0-11-99-20-122-11-8 3-11 11-8 16 8 14 130 9 130-5z"/>
  <path d="m10990 14631c-71-25-84-32-94-56-3-6-8-4-14 4-8 11-21 11-78-2-38-8-102-21-141-27-40-6-73-14-73-17 0-17 263-440 308-495l55-67 44 26c24 14 46 23 49 20s-2-19-10-36c-9-16-16-34-16-39 0-8 267 41 276 51 2 2-34 59-80 128-45 68-91 137-101 152-18 28-16 28 83-22 56-28 102-48 102-44 0 5-10 24-22 43-11 19-64 119-117 221l-96 185z"/>
  <path d="m10560 14580c8-16 18-20 33-16 12 3 31 6 42 6l20 1-20 8c-11 5-35 12-53 16-32 7-33 6-22-15z"/>
  <path d="m6296 14434c-71-48-224-115-323-140-73-18-128-25-215-27l-117-2-56-144c-30-79-53-146-51-148 5-5 162 35 186 47 8 5 37 47 64 95 47 85 49 87 79 81 17-3 33-8 35-11 3-3-47-116-110-252-139-297-208-448-208-455 0-3 26-8 58-11 38-4 82-19 134-45l76-39 56 128c31 70 56 131 56 135s-9 17-20 29l-21 22 125 284c129 293 130 295 176 275 12-5 28 19 68 99 28 58 51 105 49 105-1 0-20-12-41-26z"/>
  <path d="m3042 14278c4-61 10-113 12-116 3-2 10 8 18 21l13 26 155-125c85-69 165-135 177-147 25-26 300-468 318-512 7-16 32-128 56-247s45-216 46-214c8 8-51 553-61 567-6 8-86 112-178 230-147 188-187 232-326 358-132 118-165 155-193 207-19 35-36 64-39 64s-2-50 2-112z"/>
  <path d="m7905 14246c-68-26-315-164-315-176 0-4 6-12 13-18 14-12 71-2 252 48l120 33 72-18c64-16 77-24 129-76l57-58-54 14c-29 8-96 20-149 26l-95 11-88-40c-102-48-167-95-167-123 0-10 2-19 4-19s55 13 117 30c177 46 272 38 401-34 56-31 67-41 71-69 2-17 3-34 1-36-1-2-25 4-51 14-33 11-97 18-203 22l-155 6-62-32c-69-34-107-76-82-91 16-11 76-4 185 21 73 16 86 17 142 4 61-15 162-63 162-78 0-5-53-7-117-6-90 2-132-1-178-15-65-20-115-50-115-70 0-8-51-61-112-118-111-102-116-106-250-163l-138-58v-165l-186-62c-181-60-191-65-360-173l-175-112-290-570-7-310c-5-170-8-311-7-312 1-2 21 7 45 18s77 28 119 36c85 18 168 8 250-28 24-10 45-18 46-17 2 2 4 115 6 252l4 248-58 18c-63 20-87 35-87 56 0 19 41 44 97 58l48 12 6 90 5 89 2-89 2-88 53 6c28 3 82 8 120 12 37 3 67 9 67 13 0 3 7 47 15 96 31 190 88 295 145 265 24-13 65-90 80-151l11-44h212c213 0 338-13 405-41 40-17 38-33-9-56-54-27-168-39-381-40l-198-1v-27c0-25 5-28 67-44 78-19 115-41 111-64-4-21-62-50-118-60l-41-7-4-175c-5-264-38-467-91-571-43-87-85-86-129 1-51 102-80 277-91 553l-7 177h-47c-26 0-75 3-109 6l-61 7v-262c0-143 4-261 8-261s33-23 64-50c103-91 179-245 194-391l6-66 65-6c130-12 278-111 378-252 36-49 113-193 127-237 2-6 26 6 53 26 65 50 148 91 226 111 84 22 230 16 313-14 33-12 60-20 62-18 1 1 6 242 10 535l7 532h-338c-317 0-337-1-330-17 4-10 16-52 28-93 17-65 20-103 20-280 0-179-2-215-21-284-32-114-61-141-101-90s-56 161-55 384c1 174 4 216 21 275 11 39 23 78 27 87 6 14 1 17-31 21-21 2 97 4 263 5 165 1 349 5 407 8l106 7 8 62 1-32c2-33 3-33 52-33h50l-2 248-3 247-122 6-12-43c-14-46-37-78-56-78-20 0-46 36-59 82-13 43-14 43-67 49l-54 6 51 1 51 2 5 108c4 75 10 118 23 144 54 110 125 9 125-179v-83h120l3 303 2 302 3-302 2-303 38-1c20-1 48-5 62-9 19-6 9-8-37-9l-63-1v-490h200l6 28c47 215 102 312 175 312 63 0 118-86 160-253l23-88 95 2c53 1 159 4 237 6l140 5-4 116c-4 120-6 134-93 491-27 112-54 224-59 248-7 28-30 69-68 117l-57 73-232 101-233 100v-148h-63l6-335c5-309 4-335-11-335-44 1-43-4-53 476-6 252-12 464-14 470s-111 86-243 177l-240 167-84 1c-120 1-130 6-144 62l-12 47h350l114-95c63-53 114-99 114-103 1-4 16-24 34-45 33-37 35-38 144-51 81-10 118-19 140-35 17-11 32-21 35-21 2 0 8 90 11 200l8 199-178 203c-98 112-233 264-300 338l-122 135-84 23c-47 13-93 25-104 27-10 3-46-6-79-19zm1162-2055c35-52 48-107 47-211-1-141-42-230-105-230-34 0-56 21-83 80-17 37-21 65-21 155 0 120 11 167 52 216 35 41 78 38 110-10z"/>
  <path d="m8971 12189c-33-36-46-95-46-209 0-92 3-111 25-155 39-77 84-73 121 10 71 161-11 450-100 354z"/>
  <path d="m12040 13976c0-3-9-48-19-99-11-50-23-121-27-157-6-64-7-65-103-173-64-73-138-142-223-208-133-104-120-88-306-359l-45-65 75 75c41 41 196 199 345 350l270 275 18 93c10 51 22 95 27 98s20-1 33-10 27-16 29-16c3 0-11 44-30 97-33 91-44 116-44 99z"/>
  <path d="m11280 13932c-30-13-74-33-98-43l-43-19 77-97c42-54 81-102 86-108 7-7 58 41 148 135 76 80 137 146 136 148-2 1-55-27-119-63-63-36-117-65-121-65-3 0-6 31-8 68l-3 68z"/>
  <path d="m9853 13758c8-18 49-123 92-233s82-204 86-209c10-11 95 8 147 32 38 18 38 21 13 155-20 112-26 105 79 83 36-8 67-12 69-10s-2 17-9 33c-14 35-83 102-129 126-60 30-181 55-273 55h-88z"/>
  <path d="m2038 13664c-3-5-9-80-13-167l-7-159 47-109c27-60 49-108 51-106s-12 50-31 107c-31 92-35 116-35 204 0 56 4 106 8 113 5 8 16 1 36-23 36-45 43-38 17 15-12 22-21 57-22 78-1 33-2 35-9 13l-7-25-15 34c-9 18-18 30-20 25z"/>
  <path d="m8854 13417c3-23 8-74 12-113l6-70 198-66 197-65 6 76c3 42 2 77-3 79-4 2-77 37-162 79-84 41-177 86-207 99l-53 24z"/>
  <path d="m5536 13386c-15-36-32-69-37-72s-36 11-69 30l-60 35-35-52c-28-43-44-90-90-274-30-123-55-231-55-241 0-9 9-23 21-30 16-11 19-19 14-44-6-25-4-30 8-25 25 9 137 30 141 26 6-6 30-209 25-213-2-2-27-7-54-11l-51-6-24 51c-13 28-27 53-31 56-7 4-99-156-99-174 0-5 18-21 40-36l41-27-3-136-3-135-35-12c-50-16-50-40 0-60l40-16v-330h-90c-53 0-90-4-90-10s37-10 90-10h90v-420l-32-29c-30-27-33-34-36-102-4-84 6-121 42-144 18-12 30-14 44-6 50 27 64 167 24 234-21 36-22 49-22 253v214h150v-970c0-637 3-970 10-970 6 0 11 334 12 968l3 967 169 3c158 2 168 1 161-15-15-34-45-188-45-229 0-33-4-43-24-52-34-15-73-103-99-218-18-84-21-131-21-314 0-240 18-362 70-467 28-59 58-79 99-69 70 18 134 255 135 499 0 84 1 89 28 112 80 67 124 290 102 515-6 58-14 135-17 173l-6 67h112c67 0 111 4 111 10s-43 10-110 10h-110v850l40 20 41 21-29 37c-57 72-75 121-80 212-2 47 1 103 7 125 6 21 9 41 7 43-4 3-245-104-255-113-2-3 12-23 33-44l37-38-30-26c-30-25-31-28-31-116v-90l-42-11c-24-6-73-20-109-31-105-30-100-35-97 84l3 102 36 9 37 9 41 133c41 131 42 133 73 136 30 3 33 9 108 178 48 109 74 179 68 186-21 28-143 77-202 81l-61 5zm414-1277c0-231-4-419-8-417-5 2-25 22-46 46l-39 42 6 198c4 108 7 269 7 358v160l33 17c17 8 35 16 40 16 4 1 7-188 7-420zm-110 229c0-122-2-139-13-118-18 36-52 38-70 3-22-44-28-78-28-177 0-107 15-177 43-203 19-17 21-17 44 10l24 28v-60c0-46-3-61-14-61-8 0-28-16-44-35l-29-35-169 2-169 3v320l50 6c127 17 144 65 30 84-95 15-86 1-83 132l3 116 170 47c94 26 186 55 205 63 19 9 38 16 43 17 4 0 7-64 7-142zm-450-97v-119l-67-4c-38-2-71-2-75 0-10 4-10 117-2 190l7 52h137zm428-57c20-56 20-237-2-287-36-86-69 3-63 168 6 155 33 206 65 119zm-430-117 3-28-73 3c-65 3-73 5-73 23 0 21 35 31 105 30 31-1 35-4 38-28zm128 13c38-15 20-28-49-36-57-7-57-7-57 20 0 24 3 26 39 26 22 0 52-5 67-10zm-296-15c0-16-35-21-44-6-8 12 4 21 26 21 10 0 18-7 18-15zm138-55h32v-320h-150v158c0 87 3 162 8 166 4 4 23 5 42 2s50-6 68-6zm482-295c0-20-5-25-25-25-29 0-31 7-8 32 22 25 33 23 33-7zm60-17c0-4-9-8-20-8-15 0-20 7-20 27 0 25 0 26 20 8 11-10 20-22 20-27zm-60-93c0-37 4-65 10-65s10 28 10 65v65h29c26 0 31-5 45-47 13-38 16-94 16-295 0-223-2-254-20-306-11-31-31-67-44-80l-24-24-7 73c-18 192-55 317-107 369l-31 31 11 84c6 46 18 109 27 139 16 54 18 56 51 56h34zm-116-524c24-94 50-146 85-172 30-22 31-25 31-98 0-219-61-467-119-486-68-21-122 120-143 373-22 276 23 571 99 648 17 17 18 13 24-92 3-60 14-138 23-173zm40 217c45-92 95-386 64-376-21 7-56 66-72 122-31 105-48 306-27 306 5 0 21-24 35-52zm-544-158c0-40 4-70 10-70s10 28 10 63c1 50 3 58 12 43 26-45 7-177-27-190-7-2-21 5-32 16-23 25-26 165-4 191 24 30 31 18 31-53z"/>
  <path d="m6621 13304c-162-74-296-135-297-137-2-1 20-20 48-40l50-38 279 157c265 150 278 159 262 176-9 10-23 18-32 17-9 0-148-61-310-135z"/>
  <path d="m2687 13360-147-55-74-90c-62-76-78-104-99-171-15-48-27-111-29-158l-3-79 124-68c68-38 125-69 127-69 9 0-12 38-36 65-18 20-37 62-55 122-26 92-26 93-11 174 8 45 17 83 18 84 65 61 106 85 145 85 64 0 121 27 195 92l67 59 236 4 95-44c202-92 213-92 42 2l-118 64-144 17c-80 9-154 18-165 19-11 2-86-22-168-53z"/>
  <path d="m10170 13326c-14-7-49-19-78-26-42-10-52-16-47-28 3-9 28-77 56-152 83-227 80-220 133-257 26-18 52-33 57-33 14 0 12 19-31 265-22 127-40 233-40 238 0 11-22 8-50-7z"/>
  <path d="m7055 13237c-66-30-184-88-262-130-128-69-145-75-171-66-25 8-39 5-88-19-38-18-58-34-55-43 2-8 6-56 9-106 2-51 6-93 9-93 2 0 176 91 387 202l384 202-36 53c-21 29-41 52-47 52-5 1-64-23-130-52z"/>
  <path d="m10447 13222c-31-43-32-51-15-121 11-50 12-51 49-51 21 0 41 4 44 10 6 10-34 179-45 193-4 4-19-10-33-31z"/>
  <path d="m9295 13187c-11-88-8-91 116-132 76-26 114-34 121-27 6 6 12 30 15 54l5 43-118 55c-64 30-121 56-125 58s-10-21-14-51z"/>
  <path d="m3281 13105c97-100 127-139 181-235 36-63 80-154 98-203 18-48 34-86 36-84s-12 53-31 113c-23 71-56 144-95 210-50 85-76 117-157 190-151 136-157 138-32 9z"/>
  <path d="m6192 13110c-56-26-105-50-108-53-7-6 15-109 26-128 6-8 48 11 146 66 77 43 141 80 143 81 8 7-35 46-69 64l-35 17z"/>
  <path d="m3570 13125c0-3 26-41 59-83 32-43 77-109 101-147 47-77 49-65-21-185l-32-55 59 58 60 57 28-45c16-25 31-44 33-41 2 2-7 33-20 68-32 88-105 210-171 287-52 60-96 99-96 86z"/>
  <path d="m1890 13113c0-6 4-23 10-37l10-26h-60c-32 0-71-5-87-11-26-10-27-12-8-19 11-5 53-9 93-9l74-1 63-61c53-51 65-69 76-112 6-29 16-60 21-70 9-18 11-18 34 4l25 23 131-64c151-74 237-143 279-224 23-43 37-57 97-89l70-37 6 23c4 19-26 154-36 162-2 1-88 49-193 107-163 90-493 310-494 329-1 4 30 9 68 11 69 4 91 11 77 25-4 4-49 9-102 11l-95 4-29 36c-17 20-30 31-30 25zm20-83c0-5-21-9-47-9l-48 2 40 7c22 4 43 8 48 9 4 0 7-3 7-9zm169-6c2-2-21-4-52-4s-57 4-57 10c0 8 99 3 109-6z"/>
  <path d="m8830 13118c3-3 114-87 247-187 168-125 273-196 343-231l100-50v-950c0-622 3-951 10-955s10 312 10 939c0 654 3 946 10 946 6 0 24-7 40-15l30-16v-324c0-221-3-325-11-325-36 0-66-195-50-325 15-125 49-178 90-141 60 55 67 347 10 444-18 31-19 55-19 343 0 241 3 309 13 309 6 0 57-25 112-54l100-54 3-196c2-132-1-203-9-218-24-45-50-158-61-271-16-165 2-355 46-494 7-22 4-23-37-23-31 0-49 6-62 20-10 11-24 20-32 20-7 0-21-9-30-20-12-14-31-21-63-22l-45-1 43-4c36-4 43-7 37-21-34-83-51-284-36-434 13-134 32-207 65-245 23-26 24-27 49-10 18 12 33 38 48 84 31 96 39 391 15 512-9 44-19 88-23 97-5 13 2 15 43 12l49-3 3-68c2-40 7-65 12-62 6 4 10 19 10 35v29l37-25c36-24 55-26 96-9 16 7 17-13 17-339 0-224 4-346 10-346s10 125 10 356c0 350 0 356 23 394l22 40 160 4-78 3c-69 3-78 6-72 21 3 9 16 55 28 102 17 71 21 116 21 270 0 208-18 311-74 424-28 56-30 66-30 182v124l33-7c17-4 66-14 107-23l75-16 3-437c1-280 6-437 12-437s10 87 10 237c0 218 1 236 16 215 34-48 74-15 74 62 0 40-5 57-20 71-23 21-47 14-60-17-6-15-9 31-9 140-1 163-1 163 21 156 20-6 20-4-7 41l-28 48 27 19c14 11 26 23 26 28 0 4-24 11-53 14-45 6-60 14-93 47-37 38-41 39-99 38-52-1-95 11-319 90-257 90-263 93-595 273-318 174-363 198-351 186zm1208-844c2-108 1-116-15-109-41 17-60 15-96-9l-37-25v328l73-35 72-34zm-16-141c16-15 18-36 18-253 0-205-2-239-15-244-32-12-47-75-43-171 4-90 19-135 46-135 9 0 12-10 10-27-3-27-5-28-75-31l-73-3v396c0 425 1 433 52 469 29 21 57 20 80-1zm94-198c15-58 19-105 19-275-1-204-9-269-46-362-28-70-40 2-14 86 19 61 19 149 0 201-11 31-15 94-14 270 0 229 0 230 18 190 10-22 27-72 37-110zm255 88c20-54-16-133-42-92-13 21-11 93 3 107 18 18 27 15 39-15zm-501-365c0-202-4-327-10-318-18 33-40 200-40 315 0 136 27 335 46 335 2 0 4-150 4-332zm-237 155c7 2 11 18 9 40-5 57 15 44 23-15 11-74 8-229-4-275-6-21-17-47-25-58-14-19-15-18-33 20-24 53-26 322-3 370l15 30 3-58c2-40 7-57 15-54zm407-328c0-136-9-165-32-107-25 63-8 242 23 242 5 0 9-61 9-135zm27-42c-2-21-4-4-4 37s2 58 4 38c2-21 2-55 0-75zm-309-227c59-183 29-646-43-646-9 0-24 18-35 43-54 124-61 420-13 590 15 56 17 58 47 55 26-3 33-9 44-42zm282 17c0-34-26-63-58-63-24 0-92 60-92 81 0 5 34 9 75 9 75 0 75 0 75-27z"/>
  <path d="m9566 13071c-3-22-8-46-11-54-4-10 77-64 289-191 312-187 307-185 349-138 17 18 16 22-11 83-25 55-35 67-71 82-23 10-152 72-287 138-135 65-247 119-248 119-2 0-6-18-10-39z"/>
  <path d="m6009 13025c-40-22-54-68-54-175 0-79 4-103 23-142 34-67 84-123 105-115 14 5 17 22 17 112 0 104 0 106-21 95-25-14-25-14-33 36-7 37-5 41 18 52 31 14 31 18 10 94-18 61-24 66-65 43z"/>
  <path d="m11239 12912-65-117-28-167c-24-144-26-182-20-275 9-138 15-119 49 172 20 162 33 241 47 268 22 45 34 41 43-15 5-27 10-36 15-27 8 15 34 268 28 274-2 2-33-49-69-113z"/>
  <path d="m6281 12901-155-78-3-107c-2-83 0-107 10-103 119 50 334 152 339 160 9 15 9 143-1 177-4 14-13 26-21 27s-84-33-169-76z"/>
  <path d="m10561 12893c-1-12 6-57 14-100 20-102 19-108-8-126-22-14-26-13-93 44-38 32-72 59-75 59-8 0-59-150-59-170 1-8 29-33 63-55 56-37 64-46 80-98l18-57 38 19c20 11 42 30 48 43 9 17 12-97 12-461 1-468 0-486-19-527-40-82-44-457-6-549 24-56 47-44 68 35 26 100 25 371-2 475-19 74-20 111-20 636 0 499 2 559 16 567s10 25-29 148c-25 76-46 129-46 117zm39-330v-36l-25 23-26 24 23 13c13 7 24 12 26 13 1 0 2-17 2-37zm10-1483c6 0 10 71 11 183 1 139 3 175 11 152 13-36 16-358 5-436-5-31-14-65-22-75-13-18-15-16-32 21-16 35-18 69-18 255 0 167 3 224 15 255 14 38 15 31 18-157 1-121 6-198 12-198z"/>
  <path d="m11813 12855c-61-18-151-55-200-81l-88-48-180-275c-165-253-180-280-183-326l-3-50 56 57 55 56 62-51c34-29 58-45 53-37s-33 54-62 102l-53 86 131 189 130 188 87 52c54 32 104 54 132 58l45 6-63-58c-57-52-68-70-113-173-61-141-132-411-120-456l8-29 6 27c4 15 19 80 32 144 17 76 45 162 82 248 53 126 72 154 194 299 3 5 47 17 96 28l89 19 191-39 192-40 79-55c75-53 81-60 116-137 21-44 39-79 41-77s-14 56-37 121l-41 117-252 132-175 19c-96 10-179 18-185 18-5 0-60-16-122-34z"/>
  <path d="m13063 12870c-9-13-29-21-63-26-55-7-67-27-24-41 25-8 24-10-89-148-63-77-162-190-218-251-90-96-239-304-239-333 0-9 139-25 147-17 3 3 8 27 11 53 4 41 22 74 119 216 63 92 136 191 162 219 44 48 50 51 66 38 15-12 17-25 12-85l-6-70 18 35c10 19 31 80 45 135 15 55 34 121 42 146l15 46 126 6c69 3 131 11 136 16 24 24-14 35-129 39-107 4-115 6-111 23 7 25-5 24-20-1zm197-50c-37-12-190-12-190 0 0 6 42 10 108 9 69-1 98-4 82-9z"/>
  <path d="m3007 12715c-38-41-65-75-61-75 3 0 36 21 72 46l65 47 155-51c86-28 157-50 159-48s-268 134-312 152c-6 2-41-30-78-71z"/>
  <path d="m2196 12675c-3-8-12-12-21-9-18 7-19-6-3-41 9-21 9-31 0-46-7-11-10-30-7-44s7-36 10-50c4-16 19-32 45-45 39-20 40-22 40-70 0-35 5-55 19-69 15-15 19-39 23-152 4-89 11-147 21-171 33-78 54-39 70 128 12 124 12 124 33 109 19-13 22-26 26-112 4-109 20-155 45-131 8 8 19 46 25 85l10 70 45-8c58-11 70-21 78-68 4-22 17-49 32-62l25-24 29 35c16 19 29 40 29 47 0 6-18 40-40 75l-39 63-67 13c-92 17-100 23-106 77-3 25-11 52-19 61-12 14-14 14-26-2-7-10-13-28-13-41s-4-23-9-23c-18 0-71 59-71 80 0 30-18 60-35 60-8 0-15-4-15-10 0-27-19-3-58 74-32 63-44 99-49 150-6 64-15 82-27 51zm164-294c0-5 3-18 7-28 6-16 5-16-10-4-19 15-23 41-7 41 6 0 10-4 10-9zm145-108c6-36 4-43-9-43-22 0-30 23-21 66 8 44 20 34 30-23zm-146-20c23-16 24-19 18-127-3-61-11-124-17-141l-12-30-11 25c-13 32-22 290-10 290 5 0 19-7 32-17zm136-93c15-17 17-31 12-91-6-76-20-107-30-67-3 13-9 58-12 101-8 81-2 92 30 57z"/>
  <path d="m3812 12578c-48-9-54-13-67-46-8-20-19-44-23-52-6-10 2-26 26-52 19-21 39-38 44-38 4 0 28-16 54-35 25-19 50-35 55-35 18 0-1 20-39 41l-37 20 39-6c60-10 40 18-22 30-70 14-76 25-13 25 38 0 51 4 48 13-2 8-24 12-60 12-67 0-91 16-56 38 13 8 41 18 61 21 21 4 40 11 43 16 8 14-51 13-77-1-23-13-30-9-18 11 5 8 30 16 56 19 26 4 49 12 52 19 2 6 0 11-5 11-4-1-32-6-61-11z"/>
  <path d="m2928 12485c-21-29-38-57-38-61s22 14 50 40l49 46h194c156 0 197-3 213-15 18-14 16-15-23-10-24 3-60 7-80 9-21 3-51-1-68-8-28-13-23-14 60-13 73 1 99-3 139-21 27-12 50-21 52-19s-13 23-34 49l-37 45-110 6c-60 4-159 7-220 7l-110-1z"/>
  <path d="m3023 12465c-29-13-53-28-53-32 0-32 253-95 345-87 22 2-12-7-75-21-156-33-159-34-51-28 98 6 228 45 186 56-20 5-20 5-1 6s76 47 76 61c0 4-37 4-83 2-64-3-91-1-115 12-38 20-43 20-36 2 3-7 22-21 44-31 36-16 71-16 145 1 16 4 14 1-5-10-29-17-145-21-200-7-19 5-61 15-93 21-51 10-57 14-45 27 12 15 11 15-10 4-40-21-49-5-9 19 20 12 37 24 37 26 0 6-1 6-57-21z"/>
  <path d="m3702 12278c22-62 46-130 54-152 18-51 19-46-21-99-33-43-35-51-35-120v-74l-85-23c-47-13-82-26-78-30s45-20 90-34l82-27 62 34 62 35-52 26-51 26v62c0 58 3 65 47 121l46 59-74 150c-41 82-77 152-81 154-4 3 11-46 34-108z"/>
  <path d="m12897 12270c-25-41-43-60-57-60-23 0-60-53-60-85 0-30-47-93-71-97-23-3-33-15-49-61-8-22-26-36-80-60-56-24-67-33-58-44 8-10 6-19-9-36-12-12-24-33-28-47s-14-34-21-45c-8-11-14-44-14-73v-53l84 85c46 47 88 86 94 86 5 0 15-33 21-72 15-94 30-123 61-123 41 0 62 58 70 194 4 64 8 108 8 99 3-26 39-59 57-52 31 12 48 67 53 164 2 52 0 112-6 133-9 32-6 48 19 118 16 45 28 83 27 85-2 2-20-24-41-56zm-71-112c-11-15-16-18-16-7 0 16 21 42 28 34 2-2-3-14-12-27zm54-134c0-84-15-158-36-175-11-9-17-4-30 26-8 20-18 59-21 86-5 45-4 49 20 58 18 7 30 22 38 50 17 59 29 41 29-45zm-126-156c10-113-15-268-43-268-17 0-34 58-39 133-4 74-4 78 22 98 17 13 26 30 26 49 0 33 9 60 20 60 4 0 10-33 14-72z"/>
  <path d="m7306 12303c-48-4-48-4-42-35 3-17 6-36 6-43 0-20 202-29 362-15 146 12 229 28 235 46 11 34-340 64-561 47z"/>
  <path d="m3870 12293c0-5-7-48-15-98-8-49-14-144-14-210l1-120 13 125c8 69 23 162 34 208 26 102 26 102 1 102-11 0-20-3-20-7z"/>
  <path d="m12363 12257c-24-13-59-45-83-76-50-68-52-79-2-23 20 23 61 60 91 82 60 44 58 51-6 17z"/>
  <path d="m3610 12241c0-20 41-134 46-129 6 7-30 148-38 148-4 0-8-9-8-19z"/>
  <path d="m11742 12148c-57-44-102-82-100-83 2-2 52 13 111 33 82 27 112 34 125 26 65-40 194-105 191-97-4 11-214 203-221 203-1-1-49-37-106-82z"/>
  <path d="m2954 12155c3-11 19-54 35-95 28-73 30-76 97-116 195-115 207-116 53-6-86 62-98 74-142 152-27 47-46 76-43 65z"/>
  <path d="m6910 12123c-25-1-69-5-97-9l-53-5v-106l46-7c26-3 78-6 115-6h69v60c0 33 1 63 3 68 2 8-21 10-83 5z"/>
  <path d="m7284 12094c3-9 6-31 6-50 0-31 3-34 29-34 31 0 89 17 109 33 21 16-4 34-73 52-74 19-79 19-71-1z"/>
  <path d="m6673 12087c-65-24-63-42 6-66 62-20 71-16 71 34 0 40-2 45-22 44-13 0-37-6-55-12z"/>
  <path d="m7120 12058c-41-68-55-168-54-388 0-179 3-215 22-284 24-87 45-118 76-114 48 7 84 139 93 344 14 312-64 562-137 442z"/>
  <path d="m11201 12012c-22-18-22-21-10-46 8-15 37-40 64-56l50-28 50 19 50 18-50-1c-56 0-139 31-148 56-9 24 84 21 158-4 32-11 60-19 61-17 2 2-11 17-29 34-27 27-42 32-102 37-59 6-74 4-94-12z"/>
  <path d="m12493 12000c-44-11-134-50-228-99-177-92-222-101-294-59-49 28-73 20-61-21 7-26 6-31-9-31-12 0-20 10-24 29-5 24-10 28-28 24-17-5-20-12-17-39 5-44-19-46-33-4-13 37-35 39-43 4-8-32-30-26-34 9-4 32-5 32-41 11-26-15-30-15-80 10-58 28-71 26-71-7 0-12-9-76-20-142s-20-123-20-126c0-5-122 0-128 6-3 3 36 240 44 268 5 15 2 18-13 14-61-18-83-18-83-3 0 21-46 21-54 1-10-28-36-17-36 15 0 37-13 38-44 5l-24-25-8 27c-7 25-8 24-14-22-6-44 2-75 63-263 38-117 71-211 73-210 2 2-8 83-22 179-29 207-28 213 53 229 30 7 57 10 59 7 2-2-1-59-6-127-6-67-9-124-7-126 6-6 168-27 172-22 3 2 15 77 27 165l23 161 170-136 81-7c74-6 90-4 200 29 73 22 169 62 247 102 70 36 127 62 127 58 0-3-20-43-44-88-24-44-73-140-110-213l-67-132-112-79c-163-115-470-299-519-312-24-6-50-13-59-16-8-2-39 14-68 36-41 30-61 55-87 107-18 37-33 64-33 60-1-4 9-46 21-94 20-82 23-86 66-114 74-47 105-53 184-39 61 12 84 24 206 108 88 61 207 129 333 193 186 93 199 101 243 156l46 58v103c0 99 2 106 47 218 43 104 53 120 90 146 24 16 43 31 43 33 0 3-1 5-2 4-2 0-35-9-75-19z"/>
  <path d="m11701 11993c-41-4-119-48-107-61 3-2 36 5 73 16 60 18 75 19 126 9l59-12-32-24c-28-20-40-23-104-19-39 3-80 8-91 13-16 6-13 1 9-23 28-30 34-32 97-32h67l37 50c21 28 36 53 34 54-6 6-112 36-118 34-3-1-26-3-50-5z"/>
  <path d="m2776 11947-38-33 80-77c44-43 95-89 113-103 119-89 347-175 579-219 213-40 283-30 322 47 17 32 18 46 10 105-8 57-10 61-11 26 0-24-6-63-13-88-10-38-18-47-50-60-21-8-41-15-44-15s-3 24 1 53c4 28 2 63-4 77-9 23-10 22-10-16-1-23-6-55-12-73-13-38-25-39-225-15l-135 15-35 38c-31 35-41 40-116 51l-81 13-116 102c-90 79-122 114-140 154-14 28-27 51-30 51s-23-15-45-33z"/>
  <path d="m8714 11938c-43-52-65-109-98-260l-6-28h320l-6 28c-34 149-57 210-98 260-37 43-75 43-112 0z"/>
  <path d="m2740 11722v-77h-113c-95 0-117-3-147-21-51-29-67-62-49-100 24-51 78-69 205-69h112l4-143c4-155 6-162 60-162 35 0 35 1 45 217l8 172 86-54-7-201c-6-197-6-202 14-213 13-7 101-11 248-11 219 0 229 1 250 21l23 22-37 53c-38 55-33 52-163 90-9 2-69 87-133 187-72 113-126 188-143 198-16 9-81 50-145 92l-118 77zm8-153c30-19 28-24-18-43-71-28-226-14-238 22-2 7 11 19 30 27 42 19 192 16 226-6z"/>
  <path d="m11959 11621-84-59-27-128c-15-70-26-129-24-131 1-2 27 53 56 122 44 104 63 137 112 190 33 36 58 65 56 65-3 0-42-26-89-59z"/>
  <path d="m12573 11594-52-74-10-127c-6-71-13-172-16-226l-7-97 47 20c27 11 49 19 51 17s-1-83-7-180-9-186-7-198c2-11 51 109 110 267l106 287-76 84-77 84-10 216z"/>
  <path d="m9273 11643c-62-2-113-5-113-6 0-2 9-20 20-42 39-76 16-225-38-254-109-58-192 121-121 262l19 37h-46c-45 0-45-1-40-27 15-67 23-303 15-433-18-288-84-495-169-530-113-47-202 159-230 528-10 129-6 241 13 437 2 19-3 20-92 18-51-1-95-3-96-5-2-2-8-91-14-198l-10-195 4 198 4 197h-99v-208c0-115-3-357-6-538l-7-329 71-48c267-182 453-564 497-1020l7-67 50-26c27-14 53-22 56-19 4 4 8 333 10 731 1 447 6 724 12 724s8-106 5-277l-5-278 24 102c14 56 30 112 37 125 33 65 88 88 122 50 98-108 128-555 56-823-22-83-67-149-100-149-48 0-97 95-123 239-14 74-14 67-15-195l-1-270 43-21c23-11 87-56 142-100l100-80 143-36c78-21 145-37 149-37 3 0 3 53-1 118-4 64-15 304-26 532s-26 552-35 720c-8 168-24 502-35 744-11 241-23 443-26 447-3 5-13 8-22 7s-68-4-129-5z"/>
  <path d="m8604 11608c-12-59-20-300-12-433 9-174 40-320 86-415 44-90 76-114 119-90 57 32 111 173 139 361 13 90 15 162 12 344-3 126-8 238-13 248-6 15-24 17-165 17h-158zm159-146c30-33 49-106 54-213 9-166-28-319-76-319-53 0-86 104-86 270 0 122 14 196 45 248 22 36 40 40 63 14z"/>
  <path d="m9067 11629c-65-38-67-215-3-268 23-20 67-9 90 22 31 42 35 150 7 204-26 52-55 65-94 42z"/>
  <path d="m7535 11586c-33-79-47-214-42-391 3-93 11-190 17-215 13-56 40-120 51-120 17 0 40 50 56 121 21 95 24 414 4 504-29 132-59 167-86 101zm74-183c24-86 7-263-25-263-24 0-34 45-34 150 0 54 4 110 10 124 14 38 37 32 49-11z"/>
  <path d="m7575 11401c-11-18-11-190 0-221l9-25 7 25c4 14 7 63 7 110 1 90-8 134-23 111z"/>
  <path d="m6440 11509c-30-5-80-22-110-37l-55-27-3-127-3-128 33 8c18 4 80 7 138 6 90 0 114-4 167-26 35-15 76-36 92-47 16-12 32-21 35-21s6 78 6 174v174l-47 20c-47 20-151 43-182 41-9-1-41-5-71-10z"/>
  <path d="m2090 11476c-185-34-220-44-475-136-271-99-412-102-654-14-68 25-128 43-133 42-12-4 70-118 132-183l48-50-9-70c-4-38-4-109 1-157 20-196 92-197 110 0 4 46 5 93 3 103-7 26 2 24 83-20 40-22 114-56 165-76 130-52 190-82 312-159 82-51 140-78 254-118 138-48 160-52 328-69 134-13 191-15 223-7 23 6 44 9 46 7s77-114 166-249l163-244-39-73c-21-39-39-71-40-70s-9 44-18 96c-20 117-40 161-71 161-19 0-27-10-44-55-12-31-21-64-21-75 0-10-3-26-6-34-5-13-10-9-23 16-12 24-23 33-41 33-21 0-28-9-47-55-24-61-43-207-43-330 0-44-3-80-6-80-4 0-51 25-104 57l-97 56-7 56c-3 31-17 151-31 266-13 116-25 217-25 225-1 30-19-17-105-266l-85-248v-106c0-76 7-132 23-201 31-128 75-185 201-259l90-53 104 7c87 6 118 13 190 43 110 45 298 173 378 255 55 57 62 69 77 136 13 57 30 92 77 162 33 49 60 93 60 98s-41 69-90 143l-90 134-62 7c-38 4-67 3-74-3-9-8-45 52-142 241l-129 252 18 101 19 102-46 65c-62 89-73 104-77 99-2-2-21-35-42-72-26-47-55-82-96-116l-59-47-105 16c-107 18-122 26-155 81-16 27 144 141 277 199 102 44 108 48 108 75 0 24-4 30-20 28-33-3-538-103-542-107-2-2 3-45 12-96s14-94 13-96c-2-2-25 54-52 123-34 91-44 128-35 133 6 5 130 49 275 100s264 96 264 101c0 10-99 210-103 208-1-1-81-16-177-33zm-990-490c0-115-31-228-56-203s-43 228-28 306l7 32 38-37c37-36 39-42 39-98zm1630-899c6-28 14-84 17-123 6-70 5-74-35-145-70-127-68-127-77-8-5 57-8 131-8 164 0 61 26 169 46 194 17 20 43-18 57-82zm-147-60c16-32 18-61 17-223 0-142-4-193-15-214-22-42-30-43-76-14l-42 26 7 137c7 146 25 250 51 301 20 38 34 35 58-13zm46-295c1-47-3-71-9-67s-9 48-9 103c2 112 16 83 18-36zm-260-398c34-29 42-75 18-109-13-16-14-15-10 12 6 37-24 73-61 73-31 0-69-46-60-73 4-13 2-17-5-13-15 10-14 78 2 98 34 43 74 47 116 12zm-21-56c17-17 15-53-3-68-38-31-96 27-65 65 15 18 51 20 68 3z"/>
  <path d="m3497 11460c-3-8-17-55-30-104l-25-88 38-59 37-58 7 46c3 25 6 71 6 102-1 66-25 183-33 161z"/>
  <path d="m12402 11407-62-63v-143c0-80 2-142 4-140 9 9 133 409 127 409-4 0-35-28-69-63z"/>
  <path d="m6750 11269v-170l39-47c21-26 48-66 60-89l20-41 47 14c26 8 58 14 71 14 20 0 23 5 23 38 0 59-36 186-72 255-31 60-155 197-177 197-8 0-11-53-11-171z"/>
  <path d="m3806 11339c6-57 6-61-12-56-10 3-44 8-74 12l-55 6 23-20c13-11 34-28 47-38l23-18-19-142c-17-127-23-152-60-225-36-73-128-188-150-188-4 0-21 42-39 94l-31 94-82 6c-45 3-132 8-193 11l-112 6-22-31c-12-16-25-30-30-30-4 0-49 58-100 129l-91 128-134 28-20 170-63 9c-34 5-65 6-69 3-6-7 50-191 65-214 4-7 43-19 87-28 44-8 82-20 86-27s24-38 43-68l35-55-24-25-25-24 40-36c38-33 40-39 50-120 18-151 16-144 65-168 71-34 80-31 81 32 3 201 261 275 379 108 25-37 30-54 32-110 1-40 6-68 13-70 23-8 178 106 221 163 33 44 44 53 56 44 16-14 11-20 61 67 37 63 42 83 56 189 9 66 16 173 16 238v119l-36 49c-20 27-38 49-40 49-3 0-2-28 2-61z"/>
  <path d="m3981 11356-53-31 9-50c11-69 8-165-12-335l-16-145 63-58c84-76 192-133 279-146 109-17 245-14 324 8 54 15 306 41 396 41 3 0 8-44 11-98 10-214 78-170 78 52 0 79 1 83 26 95 41 18 124 92 156 139 17 24 28 45 26 46-9 7-169 30-211 30-43 1-51-3-85-41-51-57-132-98-222-112-41-7-122-24-179-37-84-20-120-23-180-19-110 9-184 38-226 89-59 73-74 126-85 319-5 94-10 195-10 223 0 66-18 72-89 30zm1057-805c-3-103-9-133-24-118-4 3-11 43-16 89-11 90-1 138 28 138 14 0 16-13 12-109z"/>
  <path d="m4173 11358c-19-9-22-21-28-145-9-160 2-242 44-337 31-67 29-66 104-80 28-6 67 27 107 90 34 54 38 110 19 251-13 97-33 154-68 186-46 43-128 59-178 35z"/>
  <path d="m11393 11310c-36-26-62-60-47-60 2 0 27 11 53 25l49 24 85-39c47-22 89-40 93-40 16 0-72 82-108 101-51 26-77 24-125-11z"/>
  <path d="m13567 11254c-44-23-51-32-113-156l-66-132 7-183c5-125 11-183 19-183 14 0 357 97 362 103 2 2-12 48-32 102l-35 100 4 145c2 80 8 156 11 170 7 24 4 27-47 43-29 9-56 17-58 17-2-1-25-12-52-26z"/>
  <path d="m13148 11261c-18-4-52-39-110-114l-84-108-36-268 54-103 53-102 250-96 346-20 261 93c198 70 269 100 298 125 21 17 40 32 43 32 2 0 7-27 10-60 7-67 22-103 40-97 23 7 37 55 44 147l6 91 42 35c23 19 44 34 47 34s8-36 11-79c8-103 27-151 60-151 42 0 60 62 62 213l2 128 66 102c36 56 62 103 58 105-5 2-87-9-182-23s-176-25-181-25c-4 0-18-21-31-46-17-34-78-95-232-234l-209-187-245-63-244-64-96 25-95 24-42 96c-39 91-42 106-53 240l-11 143 57 75c31 42 68 91 81 109 27 35 22 38-40 23zm1379-455c-11-215-70-227-84-17l-6 85 39 32c51 44 58 31 51-100zm-232-123c-13-136-33-148-43-26-5 61-3 67 19 84 13 10 26 19 28 19s0-35-4-77z"/>
  <path d="m12925 11241-89-17-134-524 39-49c21-27 39-52 39-56 0-3-46-58-102-122l-102-115-61 66-60 67-43-29-42-29 59-77c50-64 60-85 65-129 12-94 18-127 23-127 2 0 94 82 204 182 224 205 206 173 190 332-8 69-12 81-37 101l-29 23 44 302 71 105c70 104 77 116 63 114-5-1-48-9-98-18z"/>
  <path d="m13270 11253c-8-2-48-53-87-113l-73-110v-243l40-73 41-73 82-25c45-14 83-24 84-22 2 2-1 86-8 188l-11 185 51 117c28 64 51 120 51 124s-19 17-42 30c-39 20-90 26-128 15z"/>
  <path d="m13785 11227c-2-7-10-71-19-142l-15-131 40-99c23-55 45-104 49-109 14-15 246 193 326 291 41 51 77 99 80 106 11 30-192 81-354 90-76 5-104 3-107-6z"/>
  <path d="m4467 11143c4-38 8-104 7-149 0-91-17-128-80-184-20-17-33-34-29-38 14-14 229-3 290 16l60 18 8 50c4 27 5 82 2 123-5 76-26 118-79 164-39 33-115 67-151 67h-37z"/>
  <path d="m6309 11179-36-10-6-166c-4-92-7-247-7-345v-180l103 8c56 3 108 8 115 9 19 2 65 105 49 110-6 2-29 9-51 15-44 14-110 70-132 111-8 16-14 52-14 81 1 123 107 209 257 208 42-1 75-9 136-35 15-6 17-1 17 44 0 51 0 51-53 85-29 18-75 42-102 51-59 21-222 29-276 14z"/>
  <path d="m6751 11015c0-42 5-56 33-87 28-32 35-36 49-25 16 11 16 15-3 52-11 23-33 56-50 75l-29 35z"/>
  <path d="m11890 11046c0-2 29-56 65-120l65-116v-177l81-73 80-73 97 29c82 24 105 35 145 73 26 24 46 45 44 47-1 2-45-8-97-21-135-33-155-35-153-10 11 102 28 186 45 213 11 18 18 35 15 38-5 6-379 194-384 194-2 0-3-2-3-4z"/>
  <path d="m4760 10936c0-46-3-91-6-99-10-27 32-29 109-6 66 19 76 25 90 55l16 33-39 33c-37 33-117 68-152 68-16 0-18-11-18-84z"/>
  <path d="m6500 10991c-141-46-197-173-122-279 22-31 100-76 147-86 27-6 32-2 53 35 13 22 55 74 93 114l70 73-3 53c-3 50-5 53-43 73-43 22-150 32-195 17z"/>
  <path d="m6750 10897c0-40 10-46 30-21 11 13 10 19-8 37l-22 21z"/>
  <path d="m11817 10892c-26-27-27-31-27-153v-124l202-440 76-60c41-33 79-61 84-63 4-2 8 53 8 121 0 102 4 134 19 171l20 45-37 29c-20 15-51 38-69 50l-31 22-13-70c-7-38-15-70-19-70s-42 63-85 141l-78 140-5 145c-3 79-8 144-12 144-3 0-18-13-33-28z"/>
  <path d="m10250 10887c0-27 112-320 153-402 51-101 67-121 189-247l133-137 460-200 125 24c69 13 130 24 137 25 9 0 6 14-7 45-11 25-29 65-39 90l-20 44 56 73c31 40 61 76 66 79 5 4 43 10 84 14l74 7 78-83 78-84 42 28c22 15 41 30 41 32 0 3-22 50-49 104s-66 144-85 200c-32 92-36 114-36 206v103l-34 21c-30 19-55 22-208 27l-173 6-247-46c-212-40-265-46-376-46h-129l-152 60c-149 59-161 63-161 57z"/>
  <path d="m1289 10867c-9-7-33-66-52-130-50-167-94-233-208-307-48-32-110-66-138-76-82-29-66-53 56-89l78-22 6-99c8-114 20-154 48-154 26 0 38 39 47 146 6 79 8 85 28 82s21-11 27-125c4-90 10-128 22-147 10-14 22-26 28-26 24 0 42 77 47 193 4 116 5 117 29 117 26 0 232 67 247 80 14 13-53 211-84 251-24 31-28 42-23 77 3 23 9 42 13 42s32-20 61-44c51-42 57-51 109-185l55-140 45 6c25 3 47 7 49 9 4 4-11 65-44 168l-24 78 62-7c34-3 68-12 75-18 8-6 32-44 54-84s43-73 46-73c24-1 340 75 334 80-4 4-124 42-266 85l-260 78-125 81c-98 64-301 168-323 166-1 0-10-6-19-13zm-179-718c0-51-6-93-16-117l-16-37-13 31c-8 16-14 61-15 100-3 116-4 111 30 106l30-4zm160 24c-1-52-16-186-26-215-17-55-43 15-51 139-7 113-4 123 42 123h35z"/>
  <path d="m3801 10550c-29-118-45-155-161-383l-129-253-147-174c-113-135-191-215-343-352-184-167-210-187-423-319-192-120-228-146-228-166 0-12 2-23 5-23s81 35 173 77c136 62 206 103 380 220 116 79 212 142 212 139 0-2-77-68-172-147-141-116-212-166-393-275l-222-133-7-62c-3-34-6-70-6-81 0-13 106 52 423 264l424 283 159 175c88 96 200 229 249 295l90 120 77 295c42 162 89 362 104 444l27 148-24 19c-13 10-26 19-29 19s-20-59-39-130z"/>
  <path d="m3188 10654c-32-17-68-81-68-119 0-34 23-86 47-108 16-14 19-26 16-60-6-48 11-153 28-173 30-36 59 29 59 134 0 101 17 71 22-40 6-116 26-182 55-176 39 7 48 53 50 258 2 217-5 247-61 281-37 23-110 24-148 3zm122-9c40-21 70-62 70-98v-29l-35 26c-19 14-48 29-64 32-61 12-121-35-91-71 13-16 6-65-10-65s-40 57-40 97c0 45 20 77 64 104 37 23 67 24 106 4zm-6-91c26-10 19-43-10-55-31-11-94 5-94 25 0 31 59 47 104 30zm61-54c7-24-9-56-35-70-25-13-27 5-6 55 17 39 32 45 41 15zm-120-51c8-36 3-43-24-34-11 3-18 12-15 21 2 7 6 21 9 29 7 25 23 17 30-16zm55 9c0-13-5-30-10-38-9-13-11-13-20 0-17 27-12 60 10 60 14 0 20-7 20-22zm86-173c-13-211-66-206-82 7l-7 86 78 72 8-38c5-20 6-77 3-127zm-141 101c18-13 18-20 8-91-6-42-16-82-21-87-15-15-32 54-32 130 0 66 8 75 45 48z"/>
  <path d="m3940 10353c-25-149-51-256-104-430l-71-231-540-612-452-293-452-292-46-135c-40-119-45-145-45-223 0-48 2-87 5-87s88 64 188 142c785 611 866 677 1052 854 229 218 429 396 433 384 9-24-44-91-253-322-213-235-253-273-540-521-170-146-436-363-590-481l-281-214-37-157c-21-87-36-159-34-162 3-2 88 40 190 94l185 98 307 295c258 248 364 360 672 708 201 226 368 412 370 412 3 0-4-15-14-32-11-18-68-121-127-228-101-184-129-225-506-723-219-291-401-531-404-534s-128-36-278-73c-150-38-266-69-258-69 47-3 507 53 574 69 43 11 80 20 82 20 15 0 548 679 839 1070 202 272 406 544 453 603 77 99 88 118 119 215 34 105 35 109 29 232-3 86-13 158-32 230-22 90-27 134-31 305l-6 201-48 27c-27 15-51 27-53 27s-6-53-9-117c-5-84-18-169-47-293l-40-175 5 178c3 97 2 236-2 307l-6 130h-163z"/>
  <path d="m4624 10523-62-25-51-167c-28-91-51-169-51-173 0-3 21-9 46-13 26-3 52-9 59-12 9-3 16 14 22 59l9 63 46-90c25-49 48-109 51-131l7-42-59-4c-77-5-130-40-161-103-30-63-25-146 13-204 28-42 90-81 127-81 12 0 20-4 18-10-10-29-175-299-183-300-5 0-25 15-44 33-40 37-41 44 39-146l63-147h111c121 0 230-19 280-48 41-24 47-64 12-87-33-22-116-44-199-51l-69-7 49-47c43-42 67-54 227-114 99-36 180-65 181-64 1 2 43 83 92 180l89 178-31 6c-17 3-46 4-64 2-31-3-35-8-60-70-14-36-29-69-32-73-4-3-10 51-13 121l-8 127-112 316-113 316-7 135c-7 120-15 166-77 413-38 154-69 281-69 283 0 7-13 3-76-23zm71-555c2-2 6-24 10-49l7-46-53-5c-41-4-58-11-76-32-19-22-21-31-12-47 15-28 76-52 116-46 20 4 33 2 33-5 0-13-58-116-69-122-16-10-87 17-114 42-42 39-59 78-59 136-1 79 37 137 112 171 29 12 94 15 105 3z"/>
  <path d="m9078 10533c-57-65-89-228-89-452 0-292 60-504 135-475 24 9 64 101 81 184 25 119 30 375 11 502-31 206-85 301-138 241zm29-128c7-22 18-98 24-169 18-220-12-466-56-470-65-6-85 502-26 657 15 39 41 31 58-18z"/>
  <path d="m9061 10400c-24-69-35-282-23-424 16-194 39-236 62-116 28 147 20 461-14 544l-12 31z"/>
  <path d="m13896 10463-179-85-318-50-167 61c-92 34-172 61-179 61s-101-82-210-181l-198-181-34-119c-19-66-32-121-30-124 3-2 56 12 118 31 63 19 115 33 117 31 2-1-101-94-228-206-126-113-232-210-235-217-6-16 235-424 255-431 8-4 114 15 235 41l220 48 146 121c131 110 154 135 238 252 102 142 98 130 86 282l-6 83-83 97c-46 54-128 136-183 183s-96 86-91 88c4 2 82-18 172-44 147-42 178-47 313-55 83-4 207-11 278-15l127-7v119l80 94 80 95-62 58c-33 31-66 57-72 56-6 0-92-39-190-86zm-671-1134c15-14 15-17-1-29-22-19-133-25-178-10-41 13-47 36-13 50 36 16 174 8 192-11z"/>
  <path d="m13042 9321c-21-13 10-21 78-21 64 0 93 7 84 21-7 11-144 12-162 0z"/>
  <path d="m7469 10467c-19-17-117-165-219-329-102-163-186-295-188-294-1 2 45 130 103 286 59 155 105 284 103 285-2 2-88-115-191-259l-189-263-141-6c-226-11-267-9-336 14l-63 22-58-28c-60-29-68-40-127-191-2-6 14-16 36-22 48-15 158-87 172-114 10-19 11-19 30-2s19 10 19-460v-478l-57 3c-124 6-373-1-373-11 0-6 52-10 136-10 75 0 134-3 132-7-59-116-72-180-65-343 3-98 9-138 27-185 29-74 67-115 109-115h31v-140c0-350 66-590 162-590h28v-400c0-349 2-400 15-400s15 53 15 415v416l25 50c25 49 27 50 68 47l42-3 3-83c4-105 22-99 22 7v78l66 6c77 6 101 21 60 37-15 5-42 10-61 10-65 0-65 0-65 131v119h35c24 0 37-6 45-20 6-11 17-20 25-20 7 0 17 9 20 20 5 17 15 20 71 20h64v-177c0-163-1-176-16-155-28 40-64 24-92-41-36-85-54-368-32-522 20-137 58-224 93-212 27 9 56 71 72 159 21 108 24 333 7 448-6 41-12 170-14 285l-3 210 88 3c48 1 87 7 87 12s-39 11-87 12l-88 3v100l150 5c133 4 154 8 189 28 38 23 61 23 38 0-7-7-12-16-12-20s105-7 233-5l232 2 21-275c12-151 28-353 35-449 8-97 16-165 21-155 4 11 14 132 22 269 9 138 21 329 28 426l12 176 75 7c41 3 169 6 285 6 197 0 212-1 223-19 7-11 15-71 19-135 5-86 11-122 25-143 19-28 19-25 19 220v247h201l-3-72c-3-72-3-73-33-79l-30-7 33-1 34-1-5-87c-3-49-12-111-20-140-56-188-44-704 19-845 16-36 44-55 63-44 18 11 43 81 57 155 21 114 29 404 15 558-17 187-48 283-91 283-18 0-20 7-20 60v60h190v-735c0-483 3-735 10-735s10 252 10 735v735h145l1-173c0-153 3-178 23-229 12-31 28-59 36-62 23-8 53 26 69 79 14 49 15 47 15-117l1-168h-62c-74 0-107-14-58-24 18-3 52-6 76-6 40 0 44-2 44-25 0-22-4-25-40-25-22 0-40-4-40-10 0-5 18-10 40-10h40v-150c0-127 2-150 15-150s15 23 15 150v150h65c37 0 65 4 65 10s-28 10-65 10c-63 0-65 1-65 25v25h134c144 0 207 7 184 21-7 5-82 9-165 9h-153l-2 360c-1 198-3 392-3 432v72l100 4c110 4 157 12 162 29 5 15-43 25-162 32-99 6-100 6-103 32-3 24 1 27 43 33 57 9 55 27-3 39l-42 8v110c0 97 2 109 18 109 9 0 85-15 167-33 160-36 159-35 184-107 8-23 21-29 110-50 55-13 103-21 107-18 6 7 204 529 204 540 0 3-49 23-109 43l-110 36-66-44c-37-25-63-47-58-49 4-3 54-17 111-33 56-15 102-31 102-36 0-13-6-12-123 21-59 17-113 30-119 30-14 0-188-112-188-121 0-3 55-21 123-39 114-31 162-50 126-50-8 0-71 16-139 36-106 30-130 34-160 25-19-6-69-16-110-23-62-10-84-19-129-52l-54-41 46-13 47-13v-229h-290v595l47 128 47 129-22 16c-16 13-22 30-24 72l-3 55-74 23c-40 13-76 20-80 15-4-4-25-71-45-148-21-77-56-202-77-279-21-76-39-140-39-142s7-4 15-4c13 0 15-25 15-166 0-160-1-165-18-144-24 30-49 17-63-34-12-45-7-133 11-165 14-28 47-27 56 2 7 18 9 15 15-23 4-25 4-48 0-51-3-4-190-9-415-12l-409-6 7 75c7 93 18 114 56 114h30v270c0 259-1 270-19 270-36 0-51 12-51 41 0 20-9 35-34 54-39 30-82 26-116-10l-22-23 38-21 39-20-50-1h-49l41-42 41-43 5-176c6-169 6-177-14-195-16-15-20-26-15-55 5-33 3-37-32-53l-37-18 23-18c20-17 22-24 16-73-8-65-7-65-131-6-241 114-445 434-524 822-11 56-22 103-24 105s-20-2-41-8c-56-19-180-14-245 8-181 64-333 240-423 491-26 73-27 75-8 94 18 17 25 18 98 7 44-6 112-18 152-26s137-23 215-33l142-18 59 41c56 39 63 48 153 218 71 135 109 222 158 363 36 102 63 185 61 185s-57-97-121-215c-106-194-192-331-202-321-2 2 73 153 168 335 94 183 169 334 167 337-2 2-20-11-39-29zm-1010-1409c1-374-1-428-14-428s-15 44-15 338c0 187 3 388 7 448 13 211 22 68 22-358zm94-103-6-325h-67v795l40-73 39-72zm167-89v-236h-143l7 46c3 26 6 162 6 302v256l130-132zm113 171c15-6 17-21 17-123 0-108-1-116-20-121-27-7-50-52-57-114-4-32-11-49-19-49-11 0-14 43-14 230v230l38-23c20-13 45-26 55-30zm93-32c13-3 35-7 49-10l25-5v-360h-108l-6 43c-4 23-9 111-12 196-5 141-4 153 11 147 9-3 28-8 41-11zm240-9c3-7 9-206 13-442l8-429 4 730 24-75c50-164 96-266 170-380 109-169 261-296 413-346 44-14 53-20 50-38-3-21-4-21-360-20-249 0-358-3-358-10 0-6 9-31 20-55s20-47 20-51c0-13-56-20-109-13l-51 6v737h55c30 0 55 5 55 10 0 6-25 10-55 10h-55v356l63 11c34 5 68 11 75 11 7 1 15-4 18-12zm-318-294 3-72h-74l7 41c9 58 33 112 48 107 9-3 14-30 16-76zm2188-519c-3-6-16-13-31-15-35-4-32-21 5-31l30-8v-305l-95 1h-95v143l68 7c37 4 71 7 76 9 16 4-96 66-120 66h-24v213c0 118-3 248-6 290l-7 77h27c25 0 26-2 26-54s1-55 32-65c38-14 36-16 80 104l33 90 3-255c1-140 0-260-2-267zm-2657 401c38-48 42-80 31-244-9-148-36-321-53-347-15-23-54-14-81 18-46 54-61 127-61 289 0 152 10 205 55 278 26 42 78 46 109 6zm41 6c0-11-2-20-5-20-2 0-9 9-15 20-9 16-8 20 5 20 8 0 15-9 15-20zm39-67c-1-87-1-88-14-48-19 58-19 135 0 135 12 0 15-16 14-87zm91-35v-123l-70-2v247h70zm170-343c0-447-1-465-19-465-17 0-19 13-24 183-7 207-23 305-63 398-25 57-28 78-32 193-2 71-1 135 2 142 4 10 25 14 71 14h65zm52 388c5-85 28-142 59-150 17-5 19-15 19-120 0-100-3-117-21-142-29-39-46-221-33-349l10-92h-66v465c0 387 2 465 14 465 10 0 15-21 18-77zm76-25c-2-83-6-103-18-103-23 0-41 49-47 131l-6 74h74zm29 10c-2-18-4-4-4 32s2 50 4 33c2-18 2-48 0-65zm123-282c0-320-2-375-15-386-8-7-15-23-15-36 0-15 6-24 15-24 12 0 15-13 15-55v-55h-60c-67 0-65-2-54 84 6 39 10 46 30 46 28 0 55 26 48 45-3 8-21 19-39 25-32 11-33 13-39 73-13 150-18 452-7 501 6 28 12 75 13 103l3 53h105zm-563 87c-2-21-4-6-4 32 0 39 2 55 4 38 2-18 2-50 0-70zm111-300 2-313h-70v303c0 319 2 331 45 325 19-3 20-11 23-315zm2255 266c11-42 3-135-14-155-11-13-14-12-25 8-8 13-13 49-14 80 0 100 33 143 53 67zm-2182-150c14-66 22-149 26-278 6-178 5-184-13-176-11 4-27 10-36 12-17 5-18 27-18 281 0 301 6 324 41 161zm-192 2c-6-29-13-50-15-48-3 2 1 28 7 56 6 29 13 50 15 48 3-2-1-28-7-56zm2914 14c1-6-52-11-140-13-131-2-156 2-136 22 11 11 273 2 276-9zm-2883-223v-229l-25-11c-14-6-25-16-25-22s11-16 25-22c20-9 25-18 25-50 0-21 5-38 10-38 6 0 10 18 10 41 0 33 3 40 16 35 9-3 24-6 35-6 18 0 19-8 19-109v-109l-35-6c-19-4-35-13-35-20 0-8 16-17 35-20 34-7 35-8 35-52 0-78-47-73-88 8-47 94-66 222-66 463-1 207 0 222 21 260 12 23 24 58 28 78s9 37 11 37 4-103 4-228zm2968 221c-10-2-28-2-40 0-13 2-5 4 17 4 22 1 32-1 23-4zm-78-52c0-28 0-28-81-35-150-12-157-45-12-55l88-6 2-90c2-86 2-88-11-50-37 116-85 115-116-3l-11-43-144 6-3 153-3 152h291zm-2500-106c0-77 3-105 13-106 6 0 2-5-10-11-29-14-29-42-1-62 20-14 21-20 12-72-10-64-29-81-41-37-10 37-10 263 0 336 13 91 27 66 27-48zm2498 42c3-14-5-17-55-16-32 1-71 5-88 9l-30 7 25 6c25 7 116 15 135 12 6-1 11-9 13-18zm257 5c31-9-46-21-147-21-67-1-88 2-88 12 0 8 3 17 8 21 8 8 194-1 227-12zm-293-177c47-154 22-495-36-495-59 0-75 425-20 532 8 16 20 28 27 25 6-2 20-30 29-62zm-2442-20c0-18-4-23-15-19-16 6-20 26-8 37 13 14 23 6 23-18zm77 9c7-18-12-34-39-34-13 0-18 8-18 25 0 20 5 25 25 25 14 0 28-7 32-16zm-397-184c0-16-7-20-35-20s-35 4-35 20 7 20 35 20 35-4 35-20zm65 0c-3-5-13-10-21-10s-14 5-14 10c0 6 9 10 21 10 11 0 17-4 14-10zm2311-176c42-254 5-769-56-769-20 0-48 96-61 213-13 109-6 531 9 577 7 21 11-62 11-292 1-208 5-323 11-323s10 131 10 373c0 285 3 376 13 386 18 19 43-46 63-165zm-2276 155c0-28-33-218-40-229-20-32-30 6-30 109v107l28 11c36 15 42 15 42 2zm70-109v-120h-35c-40 0-39-8-20 125 8 55 15 103 15 108 0 4 9 7 20 7 19 0 20-7 20-120zm-170-156c0-11-5-14-16-10-9 3-21 6-27 6-16 0 14 20 31 20 6 0 12-7 12-16zm54 1c-4-8-10-15-15-15s-9 7-9 15 7 15 15 15c9 0 12-6 9-15zm116 0c0-11-12-15-45-15-42 0-54 7-38 23 3 4 24 7 45 7 27 0 38-4 38-15zm135 6c16-7 14-9-14-14-59-12-101-8-101 8 0 11 12 15 48 14 26 0 56-4 67-8zm125-103c16-35 20-66 20-165 0-69 4-123 10-125 12-4 14-23 10-143l-3-100-8 88c-10 104-21 149-36 154-20 7-33-68-32-187 2-136 8-175 31-174 18 2 13-29-8-47-23-19-39-4-57 54-55 173-43 570 19 664 21 33 32 29 54-19zm2578-165c-32-2-86-2-120 0-35 2-9 3 57 3s94-1 63-3zm-2570-335c-3-120-9-151-25-134-11 11-10 287 1 311 17 38 28-44 24-177z"/>
  <path d="m6844 10259c-27-28-118-105-203-171-141-112-152-122-135-135 42-31 86-36 139-15 43 16 59 31 115 105 55 73 148 252 137 263-2 2-25-19-53-47z"/>
  <path d="m14142 10210c-13-33-21-64-17-69 3-6 26 5 51 24s51 35 57 35-4 16-23 35-36 35-40 35c-3 0-16-27-28-60z"/>
  <path d="m11523 10210c-89-54-82-190 12-234 119-57 245 61 190 177-34 72-132 100-202 57zm121-4c68-28 95-101 62-165-22-41-59-61-112-61-39 0-51 5-80 34s-34 41-34 79c0 52 27 92 74 113 40 17 49 17 90 0z"/>
  <path d="m11564 10176c-42-19-59-65-40-111 34-82 156-55 156 35 0 62-59 100-116 76z"/>
  <path d="m14204 10158c-27-18-50-40-52-48-3-19 107-228 181-342 50-78 60-88 94-94 39-7 191 10 204 23 4 5-10 49-32 99-39 87-47 97-193 243l-152 152z"/>
  <path d="m1503 10150c-15-6-24-21-29-47-10-50-11-203-1-226 6-17 10-16 44 12l37 31 47-46c26-26 67-84 93-134 40-76 45-92 36-115-14-38-14-40 26-58 25-12 34-22 30-33-3-8-15-48-27-88l-21-72-96-49c-88-46-97-53-109-90-11-32-25-48-73-79-55-35-64-38-105-31-40 5-48 11-65 44l-19 39 71 223 71 224-27 50-26 50 20 69c11 39 18 71 17 73-2 2-32-69-67-157s-66-160-70-160c-3 0-13 12-22 28-15 25-15 35-2 111 8 46 12 86 10 88-15 16-65-14-99-58-35-45-41-61-63-182-13-72-26-138-29-144-6-17 7-16 31 2 26 20 90 20 98-1 21-56-34-231-87-276l-32-27 74-149 75-150-77-126c-42-70-77-130-77-135 0-4 75-13 168-20 92-7 176-14 187-17 29-7 75 88 75 156v49l48 13 47 13 216 414 40 183c22 101 55 253 74 338 18 85 32 156 30 158s-27-31-56-72c-56-79-59-81-113-60-11 4-16 1-16-10 0-37-18-11-39 57-22 70-26 75-82 111-71 46-78 55-53 73 18 14 18 15-8 34-24 18-27 29-34 99-3 44-9 80-13 79-3 0-16-4-28-9zm-208-1015c22-50 27-55 55-55 22 0 50 14 91 46 33 25 62 44 64 42s-15-58-39-124c-35-101-50-130-91-177-54-61-58-63-115-46-36 11-38 14-51 78-15 67-15 68 20 179 19 62 36 112 38 112s14-25 28-55z"/>
  <path d="m13395 10120c3-5 39-32 79-60l73-51 37-138c33-128 36-148 36-280v-142l-230-256 11-87c6-47 9-91 7-97s-28 26-58 70-59 81-65 80c-5 0-30-18-54-39l-43-40 86-231c48-127 85-233 83-236-3-2-18 8-35 22-20 17-49 69-91 165-34 77-75 169-91 204l-28 64-70-18c-38-9-139-28-223-41l-154-23-45-45c-25-25-70-75-101-110l-55-65-110 56c-101 52-115 56-201 63-51 3-93 4-93 0 0-5 191-302 253-394 29-43 30-43 46-23s16 20 156-25c77-25 141-46 143-48s12-36 22-75l19-72-67 6c-37 4-92 9-122 12l-55 5 54-32c30-18 88-42 130-54l76-21 17-69c10-38 16-70 14-72s-41 1-87 6c-87 11-109 8-64-9 134-51 175-73 176-93 0-12 7-44 14-72l13-50v75l-1 74 157 97 158 97 88 126 88 127 33-48c18-26 51-67 72-90l39-43-58-66c-33-36-72-81-89-99-25-29-312-217-397-261-44-23-119-17-210 17-184 68-268 98-268 95 0-2 64-41 143-87 78-45 143-83 145-84 1-1-7-22-17-46-11-25-24-74-28-109l-8-65-85 147c-69 119-92 151-123 168-21 12-40 20-41 19-2-2-9-55-15-116l-12-113 94-117c63-80 118-137 169-175l75-58h143l253 146c269 157 263 152 515 398 118 114 133 132 130 158-3 29-5 28-215-131-189-144-234-173-410-264l-198-103-6 81c-4 44-14 98-22 121l-15 41 197 128 197 127 78 119c43 66 83 119 87 119 8 0 5-91-7-182-2-21-1-38 3-38 5 0 162 57 350 127 346 129 357 135 333 173-8 12-12 11-32-7-51-47-109-68-188-68-63 0-82 4-121 27-161 94-244 343-193 571 39 170 136 289 262 321 44 12 46 14 59 62 7 27 13 57 13 68 0 10-31 59-69 110l-70 91-46 265c-26 146-52 270-59 277-14 14-288 124-281 113zm-361-1426c27-36 66-77 88-90 21-14 36-29 33-34-10-17-374-320-383-320-5 0-21 37-35 83l-26 82 102 105c115 118 182 193 152 169-11-9-56-45-100-80-44-36-101-82-126-102l-47-38-52 154 32 40c48 61 132 95 234 96l80 1zm-487-99c45-37 76-73 83-93 7-18 10-36 7-38-10-10-257 29-257 40 0 18 81 158 89 154 4-2 39-30 78-63zm659-43c12-9 31-35 42-57 42-86 58-65-208-265-133-100-243-180-245-178-1 2-5 32-9 68l-7 65 180 145c164 132 181 149 196 193 9 26 20 47 23 47 4 0 17-8 28-18zm-386-894c34-75 24-222-18-270-42-49-89 84-72 205 9 64 32 107 56 107 8 0 24-19 34-42z"/>
  <path d="m10623 10057c-19-27-275-619-290-671-5-16-2-17 23-12 16 3 50 8 75 12l46 6 6-51c11-96 56-147 102-117 35 23 48 53 54 126l6 65 45 7c45 6 239 73 251 86 4 4 3 58-2 121s-8 116-5 118c2 2 36 7 75 10l71 6 40-89c23-49 42-90 44-91 1-2 18 2 36 8 32 12 32 13 27 61l-6 49 44 21 45 22 30-22c16-12 33-22 37-22 9 0 163 164 163 173 0 3-17 3-37 1-21-2-106-11-189-19l-152-16-251 125c-138 69-254 126-258 126-5 0-18-15-30-33zm-3-701c0-57-32-121-60-121-23 0-61 84-58 125 3 33 6 35 43 41 79 12 75 14 75-45z"/>
  <path d="m11762 10008c-21-29-58-81-81-114l-44-62 16-128c9-71 21-174 28-229 11-94 16-109 85-247 59-117 80-151 104-163 16-9 30-11 30-6 0 13 56 31 95 31 43 0 95-19 95-35 0-20-21-32-70-40l-44-7 44-24c38-20 60-23 148-24 83 0 110 4 140 20 71 37 71 25-9 178-59 115-77 142-98 147-103 25-94 17-135 119l-37 95-57-26c-84-37-88-38-95-11-8 28-8 28 142 109 96 51 120 69 124 89 3 14 3 28 1 31s-47 9-100 12c-53 4-98 8-100 9-1 2-10 66-18 143-24 200-18 185-76 185-48 0-50-1-88-52z"/>
  <path d="m13770 10030c0-4 5-21 11-39 6-17 41-147 78-289 52-196 75-269 99-307l32-50v100c0 121 20 220 59 299l29 59-51 91c-28 50-52 93-54 95-6 8-203 48-203 41z"/>
  <path d="m8340 9826c0-39 17-81 111-268l111-221-7-57c-6-54-97-385-108-397-4-3-76 50-162 117-85 68-153 125-151 128 3 2 81 17 173 33s169 29 170 29c0 0 6 14 12 30l10 30-133 90c-93 62-237 141-476 260-188 94-344 169-346 167s106-84 241-182 244-179 242-181c-1-1-173 31-382 71s-381 72-383 70c-1-1 136-62 305-135s319-138 332-145l25-13-30-15c-22-11-103-17-354-27-179-7-326-13-328-15-3-3 104-17 328-45 157-19 342-48 349-55 10-10-78-48-302-130-135-49-244-91-243-93 2-1 86 11 187 28 101 18 238 35 304 40l120 8 30-28c17-15 82-57 145-93 107-60 128-68 292-108l177-43 118 56 124 386-39 83c-25 55-107 179-232 354-106 149-201 281-211 294l-19 24z"/>
  <path d="m14081 9757c-50-61-86-283-65-409 6-33 19-46 112-118 98-75 107-80 119-63 22 29 43 112 54 211l10 94-58 61c-34 35-80 100-107 150-26 48-49 87-50 87-2 0-9-6-15-13z"/>
  <path d="m6130 9675c0-3 20-29 44-59 24-29 56-79 71-110s30-56 34-56 27 20 51 45l44 45-34 35c-51 53-210 128-210 100z"/>
  <path d="m14595 9664c-27-7-80-13-117-13l-67-1 16-37c30-72 143-396 139-400-2-2-55 51-117 118l-114 121-13-97c-11-84-23-127-57-207-5-13 32-46 181-157 104-78 193-141 199-141s12 16 13 35c10 142 125 183 171 62 18-47 13-133-9-177l-20-40 26-40c30-46 40-48 94-20 47 24 78 25 127 5 19-8 37-15 39-15s18 28 35 62l32 63-33 97-33 98-202 184-114 251c-62 137-116 253-120 256-3 3-28 0-56-7z"/>
  <path d="m6008 9573c-51-42-94-77-95-77-6-4 12-58 21-61 87-30 134-52 171-80l43-34 57 53c61 58 61 56 19 139-26 50-95 137-110 137-7 0-55-34-106-77z"/>
  <path d="m11120 9205c-179-216-326-392-327-391-2 2 49 116 112 254l116 251-12 43c-7 24-14 45-16 47-2 3-39-20-83-50l-81-54-269-381c-302-426-301-425-261-518l22-49-38-39c-36-37-40-39-84-33-45 6-46 6-73-35-15-23-26-43-24-45 6-6 351-115 363-115 7 0 26 32 41 71 35 85 52 98 84 64l22-24-37-45-37-46 33 1c32 0 61 30 449 461l415 460 92 162c51 88 93 163 93 166s-13 12-28 21c-21 12-32 31-46 77-14 44-30 72-60 101l-41 40z"/>
  <path d="m5871 9459-23-19h31c31 0 37 6 23 27-5 8-14 6-31-8z"/>
  <path d="m5748 9359c-95-77-106-99-60-123 35-18 161-46 206-46 36 0 36 0 35 43 0 54-14 175-19 180-3 3-21 7-40 11-32 5-42 0-122-65z"/>
  <path d="m5934 9379c3-17 6-67 6-110v-79h44c40 0 46 4 97 62l53 61-34 29c-34 28-126 68-157 68-12 0-14-7-9-31z"/>
  <path d="m5560 9205c-30-25-55-51-55-57 0-16 82-66 120-74l30-6-3 79c-4 71-13 103-31 103-3 0-31-20-61-45z"/>
  <path d="m5665 9143c4-43 12-81 19-85 6-4 57-8 113-8 116 0 123 5 123 78v40l-52 7c-29 3-86 15-126 26-40 10-75 19-78 19-4 0-3-35 1-77z"/>
  <path d="m5940 9138v-32l30 29c17 16 30 30 30 32s-13 3-30 3c-27 0-30-3-30-32z"/>
  <path d="m5435 9103c-51-40-51-46-7-123 34-59 107-136 161-172 25-15 48-28 51-28 4 0 21 18 39 40l32 41-20 62c-11 34-22 76-26 93-5 25-13 33-45 43-21 6-61 27-89 45l-50 34z"/>
  <path d="m13803 9094c-197-97-272-425-154-669 95-195 266-250 413-133 35 27 39 35 35 62-3 17-62 141-131 276l-127 245 21 100c12 55 24 110 27 123 7 30-19 29-84-4z"/>
  <path d="m2281 9048c17-35 33-65 35-67 3-3 40 13 84 34s78 40 76 42c-1 2-26-1-55-7-50-9-54-8-104 25-28 19-55 35-60 35-4 0 7-28 24-62z"/>
  <path d="m11936 9061c-31-12-1-24 59-24s90 12 59 24c-10 4-37 8-59 8s-49-4-59-8z"/>
  <path d="m5366 9040c-3-8-30-84-61-169-30-85-54-155-52-157 1-2 33 32 70 76l67 79 36-15c19-8 57-23 84-34l50-20-58 58c-31 32-73 88-94 127-23 44-39 64-42 55z"/>
  <path d="m5684 9008c29-143 34-146 115-58 38 41 68 75 68 76-1 1-44 4-96 8l-93 6z"/>
  <path d="m9215 9007c-2-7-24-75-49-152s-46-147-46-156 10-23 22-31l22-15-26-88c-15-49-25-92-23-95 3-4 19-10 36-14 27-5 40 1 93 43 47 37 81 55 140 72l79 23-46 15c-49 17-79 38-37 27 119-32 106-34 212 30 58 35 92 61 85 65s-74 24-149 45c-76 21-138 41-138 46 0 13 17 10 177-36l152-43 86 51c47 28 85 54 85 57 0 4-20 15-45 25-41 15-52 15-101 4l-55-13-235 75c-155 50-237 72-239 65z"/>
  <path d="m14723 8954c-25-38-28-121-6-164 39-76 93-33 93 75 0 99-48 148-87 89z"/>
  <path d="m1050 8921c0-4-11-64-25-131s-24-124-22-126c4-5 136 161 143 180 3 7-15 29-40 49-46 38-56 43-56 28z"/>
  <path d="m3999 8808-52-93-23-200c-21-188-26-211-83-383-34-100-61-187-61-192 0-6 52 49 115 122l114 133 1 170c0 127 6 216 25 349 14 98 24 181 21 183-2 2-28-38-57-89z"/>
  <path d="m14544 8738c1-69-9-125-58-330-33-136-57-250-54-253 2-3 51-1 108 4 96 8 110 6 214-20 61-16 118-29 127-29 21 0 25 11 99 265 34 116 63 216 65 223 3 8-10 12-43 12-47 1-47 0-148-107l-102-108-14 284-94 71c-51 38-95 70-97 70s-3-37-3-82z"/>
  <path d="m5382 8727-62-63 65-32c91-45 93-44 97 30 3 54 6 63 23 66 30 6 38 18 26 41-9 16-21 21-49 21-33 0-46-8-100-63z"/>
  <path d="m4772 8632c13-21 68-113 122-205 55-91 103-164 107-161 4 2 10 22 14 44s10 40 14 40 21-32 36-71c16-38 32-72 36-75 8-4 448 306 448 317 1 4-37 10-84 14-74 6-99 13-183 55l-98 48-28-44c-15-24-31-44-35-44s-87 27-186 60-181 60-183 60 7-17 20-38z"/>
  <path d="m956 8428c-3-17-4-34-1-38s29-11 60-15c74-9 171-58 191-97 41-79-71-158-247-175l-68-6-11-51c-29-140-33-122 40-196 74-74 116-141 166-262 20-46 41-96 47-111 12-27 18-11 106 263 68 215 92 301 88 325-3 18 0 53 7 77 11 40 18 46 79 76 76 36 74 26 32 152l-22 65-109 6c-60 4-164 9-230 12l-122 5z"/>
  <path d="m926 8279c-10-52-22-111-26-132l-8-39 47 6c161 22 261 71 261 129 0 50-98 108-207 122l-49 7z"/>
  <path d="m3001 8038c-153-172-195-213-275-268-52-35-94-66-92-67 2-2 61 23 132 55l129 59 94 134c51 74 118 169 147 212 30 42 52 77 50 77-3 0-86-91-185-202z"/>
  <path d="m14519 8123c-36-4-37-6-54-66-9-34-19-65-21-68-2-4-38 4-79 16-41 13-75 21-75 18s18-25 40-50 40-49 40-53-54-128-121-276c-66-148-132-294-146-326-28-63-25-62-257-154l-118-47-127 22c-69 12-135 24-147 26-18 4-28-11-77-113-30-64-54-118-53-119 1-2 40 2 87 7 67 8 102 20 174 55 125 62 222 85 360 85 222 0 405-79 563-242 29-30 63-68 75-86 20-29 26-32 79-32 64 0 58-8 77 102 10 55 8 63-30 161l-40 103 97 305c53 167 97 305 98 306s44-26 96-60l95-62 119-188c65-103 120-186 122-185 1 2-13 87-32 188-18 102-39 213-45 247-10 58-19 73-123 205l-111 141-119 54c-66 29-122 53-126 53-3 0-20-33-37-74l-31-73 147-6c147-5 211-18 211-42 0-25-65-37-232-42l-167-6-87-199c-47-109-85-200-83-202s50-8 106-14c100-10 143-23 143-43 0-18-55-31-178-43l-124-11-60-143c-34-78-63-141-65-139s19 68 47 146c27 78 50 144 50 145 0 2-24 7-54 10-58 8-93 26-82 44 9 15 71 32 116 32 19 0 40 4 46 8s40 93 76 197c37 105 69 198 73 208 5 12 2 17-11 17-38 0-94 21-94 35s48 31 105 37c26 3 32 10 56 73 37 94 37 102-8 114-21 6-40 10-43 9s-21-3-41-5z"/>
  <path d="m3891 7947c-113-145-171-233-369-567-215-360-277-480-252-480 5 0 42 20 82 45 72 43 73 44 88 24 15-19 28-2 279 365 144 212 264 386 267 386 2 0 41-18 85-41 45-22 82-39 84-37 7 7-36 285-47 307-11 19-10 25 5 35 15 12 15 16 1 52-12 32-67 86-85 83-2 0-64-78-138-172z"/>
  <path d="m12462 8066c20-14 50-26 65-26 26 0 25 2-13 19-73 33-93 36-52 7z"/>
  <path d="m14035 8061c-51-23-172-132-206-185-15-23-52-81-84-130l-56-88-24 22c-26 25-27 24-49-54-19-66-16-86 14-86 11 0 20-3 20-7 0-5-16-77-35-162-26-119-31-159-23-175 10-18 12-16 33 25 12 24 62 134 110 244 92 208 120 251 187 286 53 27 76 24 113-16 45-49 52-128 25-268-11-55-18-102-16-104 9-9 138 376 156 466 24 126 20 168-24 211-41 39-87 46-141 21z"/>
  <path d="m14655 7900c-14-28-14-31 1-37 9-3 78-3 153 0 144 7 227 22 200 37-23 13-173 30-261 30-76 0-78-1-93-30z"/>
  <path d="m14502 7910c-48-11-49-17-5-29 47-13 73-14 73-2 0 5 3 16 6 25 7 18-16 20-74 6z"/>
  <path d="m846 7873c-7-25-96-473-96-486 0-6 26-8 70-5 39 3 70 3 70-1 0-3-42-24-93-47l-92-40-55-167c-30-92-58-167-62-167-5 0-8 17-8 38 0 68-14 69-53 5l-36-58 27-6c115-26 143-34 184-57 51-27 74-54 80-93 2-20 10-25 48-29 43-5 45-7 53-45 4-22 11-128 15-235l7-195 43 71c39 65 45 85 69 222l26 151-41 72-42 71 85 264c47 145 85 273 85 285 0 28-64 189-102 259-41 73-111 164-147 190-28 19-30 19-35 3z"/>
  <path d="m3545 7755c-83-110-89-115-124-115-20 0-45 3-56 6-26 7-68 76-85 137-7 26-16 50-20 52-12 8-190-222-190-245 0-12 7-20 18-20 9 0 95-5 190-12l173-12 140 140c76 76 139 142 139 145 0 4-12 11-27 17-70 27-64 30-158-93z"/>
  <path d="m8050 7717c0-30-56-749-66-849l-6-58h-46c-26 0-52 4-58 8s-28 58-48 120c-21 61-40 112-43 112s-3-258 1-573l8-574-209-7c-309-11-552-43-610-82-116-75 198-144 659-144h158v-737l-137-21c-300-48-324-118-57-168 71-13 146-26 167-29l37-6v-1491l-57 4c-101 7-394-11-518-32-381-65-743-218-965-409l-55-48-303 5c-515 8-891-27-910-86-17-52 423-98 866-90 105 2 191 1 190-2-2-3-20-36-42-73-56-98-87-198-99-313l-11-102-51-6c-75-9-115-25-115-47 0-21 43-36 132-45l56-7 12-45c30-119 112-255 229-375 78-81 208-187 229-187 27 0 8 27-45 65-82 58-223 200-273 274-45 68-91 163-108 224l-10 37h266c356 0 512 18 512 59 0 45-163 65-524 65h-278l7 71c12 132 55 255 125 362l33 50 111 7c135 8 300 32 335 49 80 38-8 78-203 93-47 4-86 10-86 14 0 8 119 98 190 143 83 52 244 130 350 170 266 99 541 147 848 147h159l6-212c4-116 7-353 7-527l1-316 248 260 77 169c86 189 74 136 140 646 22 176 25 227 20 365-3 88-12 345-21 570-8 226-16 438-18 473l-3 63 215-6c268-9 776 9 1021 34 319 34 445 70 425 123-32 82-647 144-1356 136l-317-3-7 170c-3 94-10 255-15 360-5 104-6 192-2 196 4 3 45 14 92 23 122 23 170 66 116 101-13 9-66 25-116 35-51 10-95 22-99 25-3 4-11 165-17 358-26 773-45 1307-52 1397l-7 95-42 3c-32 2-43-1-43-11zm-111-2002c7-137 21-407 32-600 22-385 24-570 10-960-6-143-15-429-21-635-7-206-15-411-19-455-3-44-10 401-14 989-8 1180-9 1922-3 1915 2-2 9-116 15-254zm-186 155h37v-180h-167c-181 0-347 12-485 35-93 16-168 41-168 57 0 17 75 40 195 60 109 18 482 40 530 32 11-2 37-4 58-4zm640-64c21-8 37-19 37-24 0-14-65-38-135-51-89-17-85-19-85 53v63l73-13c41-7 90-19 110-28zm902-876c211-15 386-36 487-61 145-35 142-63-11-98-100-23-304-46-551-62-172-12-954-19-963-9-2 3-7 58-10 122l-5 117 66 4c114 8 829-2 987-13zm-1503-106c2-47 2-87 1-88-5-5-201 25-258 40-66 16-109 40-100 54 13 21 238 73 337 79 14 1 17-12 20-85zm-1635-2112c8-5-5-27-40-70l-52-62h-274c-288 0-492 11-649 36-104 16-145 31-121 44 25 15 181 40 294 49 139 10 826 13 842 3zm223-17c113-16 170-31 170-45 0-12-125-37-242-50-114-12-188-13-188-3 0 4 23 31 52 60 59 60 55 59 208 38zm83-635c142-10 249-28 242-40-16-25-389-53-595-44-171 7-170 7-170 49v34l78 4c166 7 323 6 445-3zm-553-41v-30l-57 7c-62 7-109 21-101 30 7 7 87 22 126 23 29 1 32-2 32-30z"/>
  <path d="m13911 7664c-19-16-53-72-90-150-56-116-60-131-67-219-4-54-3-95 2-95s33 15 63 33c51 31 55 37 106 149 29 64 61 151 71 193l18 77-23 19c-31 25-44 24-80-7z"/>
  <path d="m3879 7288c-89-177-174-346-190-375s-29-57-29-62c0-6 15-11 34-11 26 0 40 7 55 28 67 91 79 102 127 122 50 21 50 21 185 248l135 227 63 9 63 8-33 34c-31 32-101 60-221 89-27 7-29 3-189-317z"/>
  <path d="m13269 7442c-91-59-203-136-249-171-71-55-93-67-147-77-85-16-164-5-238 33-47 24-89 61-184 162-68 73-129 130-135 128-12-4-44-116-45-157 0-21 10-30 58-54 53-26 63-37 100-102 34-59 54-82 109-120 79-56 175-94 238-94 55 0 104 29 197 119 37 36 67 62 67 57 0-26-80-134-131-176-88-73-153-78-303-20-42 17-81 30-85 30-5 0 2-39 16-87 13-49 41-151 63-228 29-107 44-187 61-339l22-199-17-446c-9-245-23-594-31-776-8-181-19-438-25-570-11-259-47-887-55-972l-5-53h85l1 163c0 167 13 249 48 303 21 31 39 31 65-2 35-45 56-164 55-321l-1-143h29c23 0 28 4 28 25 0 37 25 92 48 104 35 19 72-32 72-99 0-25 4-28 41-32 22-2 42-1 44 2s-2 39-10 80c-8 51-34 122-79 221-36 80-66 155-66 167 0 13-18 42-39 65-47 50-67 128-45 168 20 37 18 45-39 132-33 52-51 90-49 105 5 32 17 28 74-25 35-33 49-42 45-28-3 11-11 47-17 80-9 44-20 69-45 95-60 63-75 108-69 197 3 43 11 276 19 518 11 343 20 484 39 640 14 110 35 277 46 370 11 94 34 224 50 290s36 154 46 195c9 40 41 124 71 185 49 99 66 123 179 244 69 73 123 135 120 138-2 3-45-7-95-21-49-14-95-26-101-26s14 24 46 53c42 39 80 61 147 88l90 36 38 74c29 57 38 86 39 127 0 35-4 52-12 51-7 0-88-49-179-107z"/>
  <path d="m4330 7465c-12-13-40-36-62-52-34-23-53-53-124-196-47-92-82-172-79-178 4-5 24-18 46-30l41-20 33 25c18 14 84 82 146 151 101 111 117 125 146 125 18 0 33 3 33 7s-18 44-41 88c-33 67-46 84-73 93-42 15-39 16-66-13z"/>
  <path d="m2665 7471c-27-4-159-48-293-98-198-75-269-97-387-119-80-15-150-31-156-34-7-5 0-26 21-63 30-53 33-55 78-59 38-3 72 7 192 54 104 42 175 63 251 76l106 17 95-33c89-31 101-39 199-128l104-95 78 4c42 2 80 6 83 10 3 3-52 110-123 239-128 233-129 233-163 234-19 1-57-1-85-5z"/>
  <path d="m2860 7471c0-7 295-549 305-559 1-2 14 16 28 40l25 42-198 396h430l23 38 24 37-176 6c-272 10-461 10-461 0z"/>
  <path d="m2210 7406c-53-11-120-43-120-57 0-9 103 15 200 46l75 23h-50c-27 0-75-6-105-12z"/>
  <path d="m14325 7415c-5-2-22-6-37-9-16-4-28-10-28-16 0-10 20-17 80-25 43-6 45-5 57 24l11 31-36-1c-21 0-41-2-47-4z"/>
  <path d="m14431 7390-10-30h84c88 0 185 16 185 30s-95 30-175 30c-72 0-73 0-84-30z"/>
  <path d="m3070 7355c0-9 160-325 165-325 4 0 195 319 195 326 0 2-81 4-180 4s-180-2-180-5z"/>
  <path d="m4871 7223c-16-20-33-53-36-74-4-25-15-43-31-54-24-15-29-15-87 7-54 20-70 22-127 15l-65-9-60-78c-33-44-67-81-75-84s-66-17-128-31l-114-26-49 31c-47 28-54 30-114 24l-64-7-41-65c-23-35-39-66-38-67 2-2 156-8 343-14s381-13 432-16l91-6 135 99c112 84 140 110 171 160 35 59 36 60 21 96l-15 36-38-25c-53-36-55-10-2 35 37 31 42 41 36 63-6 25-10 27-60 27-51 0-57-3-85-37z"/>
  <path d="m1295 7224c-21-8-49-24-61-35-19-18-21-25-12-50 11-33 20-36 38-14 16 19 93 20 109 1 9-11 2-20-35-43l-46-31 78-65c63-52 88-67 124-73 31-5 162-70 425-212 209-112 394-212 410-222 17-10 51-21 76-24 50-7 59 1 59 47-1 19-31 36-193 112-112 53-235 119-295 159-56 38-101 71-99 73 2 1 93-4 203-12l199-14 38 31c21 16 42 26 46 22 5-5 14-49 21-99 14-101 20-96 40 35 15 96 19 91 40-54 8-48 16-83 20-79s15 50 25 102c21 109 29 102 40-31 10-121 22-128 30-19 4 50 11 94 15 96 4 3 13-55 20-127l13-132-37-33c-20-18-36-35-36-37 0-5 108-86 114-86 7 0 57 163 106 348 9 37 14 42 31 37 17-6 4 25-63 153l-83 159-222 54-82-23c-71-21-90-32-153-87l-72-63-116 6c-63 4-146 9-184 13l-68 6-42 57c-40 57-42 59-126 81-90 24-93 24-126 14-17-5-26 0-40 23-10 17-28 33-40 36s-28 8-36 10c-7 3-31-2-53-10z"/>
  <path d="m4415 7139c-38-49-71-93-73-98s6-14 17-20c17-10 25-5 56 34 30 36 83 161 73 170-2 2-34-37-73-86z"/>
  <path d="m12088 6968-86-112 14-40c29-80 84-143 141-160 19-6 30 5 88 92l66 98-62 117c-34 64-65 117-69 117s-45-50-92-112z"/>
  <path d="m13801 7049c-64-12-139-38-196-67l-50-26 30-7c17-4 64-12 105-18 90-13 209-68 236-108 37-58 16-117-61-164-16-11-24-19-16-19 7 0 35 18 61 40s50 40 53 40c5 0-13-57-113-365-51-157-303-940-401-1244-27-85-48-156-46-158 4-3 123 219 711 1315 151 281 148 277 175 194 13-38 11-45-63-242-42-111-74-205-71-210 2-4 43-22 90-40l86-33 143 10c129 10 147 14 184 38 22 15 43 34 47 42 3 9 11 61 17 115 9 76 9 122 0 194-11 83-49 228-70 261-4 6-52 16-106 22-99 11-146 26-153 47-5 15 48 33 120 41 32 3 60 10 63 14 3 5-37 51-88 103-124 124-239 190-388 221-77 16-227 18-299 4z"/>
  <path d="m1123 6968c-18-6-33-16-32-22 0-6 8-69 17-141l18-130 104-6v48c0 26-3 91-6 145-6 89-9 97-31 107-27 13-27 13-70-1z"/>
  <path d="m5104 6948c-16-17-22-29-13-26 8 3 51 12 95 19l79 13-40 12c-66 20-88 17-121-18z"/>
  <path d="m1234 6924c3-9 6-69 6-135v-119h105c91 0 115 4 175 27 39 15 70 30 70 34 0 6-343 209-355 209-4 0-4-7-1-16z"/>
  <path d="m5225 6934c-11-2-55-12-97-21-72-15-80-20-134-74-67-68-76-62 116-79 321-27 322-28 384-77 41-33 66-63 88-107 17-33 32-62 33-64 4-4 347 119 358 128 4 4-126 71-290 149-283 136-302 143-368 146-38 2-79 2-90-1z"/>
  <path d="m13481 6902c-55-42-101-83-101-92 0-4 46-9 103-12 148-8 267-47 267-88 0-40-113-79-252-87-55-3-98-10-98-16s52-8 148-4c160 6 258 26 248 53-6 16 9 19 19 4 8-13 41 4 83 43 100 95-39 204-287 225l-85 8z"/>
  <path d="m411 6818c-45-70-71-122-71-140v-28h75c60 0 77 3 82 16 4 11 8 12 13 4 6-10 25-9 84 4 75 17 76 18 87 57 11 35 15 39 45 39 40 0 48 11 33 43-22 48-95 80-256 113-18 3-32-13-92-108z"/>
  <path d="m13353 6923c-27-5-27-6-5-55l17-36 54 49 55 49-50-1c-27-1-59-4-71-6z"/>
  <path d="m15055 6879-140-28-120-126 140-6c77-3 161-9 186-13l46-8 22 89c12 48 24 96 27 106 7 21 12 21-161-14z"/>
  <path d="m11792 6673c-100-91-181-168-178-170 2-3 60-11 128-19 67-7 163-21 211-30s89-15 91-13c8 8 126 190 126 193s-14 7-31 11c-42 10-103 75-130 140-12 30-25 55-28 55s-88-75-189-167z"/>
  <path d="m2910 6826c0-4-11-58-25-122s-25-121-25-127c1-7 15 16 33 49 28 53 35 60 52 53 35-14 41-10 58 39 26 72 31 65-80 109-7 3-13 2-13-1z"/>
  <path d="m13388 6710 4-80h56c130 1 282 44 282 80s-152 79-285 80h-60z"/>
  <path d="m3048 6740c-5-14-12-36-15-50l-5-26 124-16c542-73 702-96 986-144 177-30 329-54 336-54s30 28 50 63c20 34 61 90 91 124l54 61-52 5c-60 7-625 31-1092 47-176 6-353 11-394 13-70 2-74 1-83-23z"/>
  <path d="m14620 6704c0-3 10-23 23-44l22-40 155 1c85 0 196 6 245 12 80 11 90 14 93 33 4 26-24 31-233 40l-141 7-38-44-39-44 6 43 5 42h-49c-27 0-49-2-49-6z"/>
  <path d="m1562 6655c-72-29-129-45-156-45-24 0-70-3-104-6l-60-7-7-61c-16-159-28-248-46-331-10-49-19-90-19-91 0-2 19 8 43 21 38 21 50 22 120 16l77-7v27c0 15 3 40 6 57 6 29 10 31 101 54l95 23 23 62c39 103 103 189 173 234l45 29-65 29c-99 45-101 45-226-4z"/>
  <path d="m14476 6689c-52-8-75-22-57-34 13-7 204-34 210-28 2 1-4 19-15 38-20 39-37 41-138 24z"/>
  <path d="m4633 6634c-81-94-142-194-117-194 4 0 50-7 103-16l96-17 135-95c74-52 134-99 134-106-1-6-5-18-9-28-6-14-2-15 37-6 24 6 112 11 195 12 84 0 153 4 153 8 0 23-18 42-61 63-39 20-50 32-59 62-10 33-25 46-105 98-52 32-92 61-91 63 2 2 68-4 147-14l142-18 39-83c21-46 41-83 44-83 14 0 124 66 124 75 0 6-9 57-19 115-18 99-22 107-56 135-36 31-37 31-253 49-119 10-262 22-317 26-55 5-126 9-157 10-57 0-57 0-105-56z"/>
  <path d="m572 6655c-30-7-57-16-60-20-4-4-16-59-28-123l-20-117 116-420-3 235-2 235 42 113c47 125 49 120-45 97z"/>
  <path d="m340 6463v-176l41-141c23-78 44-151 48-163 3-13 4 105 2 261l-3 283 26 51c14 28 26 54 26 57s-31 5-70 5h-70z"/>
  <path d="m13725 6608c-52-15-104-20-202-21l-133-1v-93c0-88 1-93 23-98 12-3 58-14 102-25l80-19 72 71c70 69 72 70 104 59 18-6 34-10 36-8s-8 29-22 61c-14 31-25 60-25 63 0 4 20-13 45-37s45-39 45-33c0 17-40 103-48 102-4-1-38-11-77-21z"/>
  <path d="m15065 6620c-33-4-135-8-226-9l-167-1 29-82c47-139 62-304 39-428-6-29-8-55-5-58 2-3 40 18 83 46l78 52 127 239c70 131 127 242 127 245s-6 5-12 5c-7-1-40-5-73-9z"/>
  <path d="m1802 6580c-53-38-96-96-138-187-19-39-34-74-34-76 0-3 108 22 240 56s240 64 240 67c-1 10-239 170-253 170-8 0-33-14-55-30z"/>
  <path d="m1153 6593c-18-2-33-6-33-9 0-26-107-352-118-361s-57-13-149-13c-74 0-133-4-133-9s22-45 48-88c42-68 52-95 76-208 16-71 30-131 31-133s48 62 104 142c64 91 114 152 136 166 19 12 37 31 40 43 37 163 65 344 65 427 0 54 4 52-67 43z"/>
  <path d="m273 6560c-10-14-13-83-13-247 0-228 0-228 31-320 17-51 36-93 42-93 38 1 38 14 2 187-26 126-35 199-36 275-1 57-4 129-8 161-5 51-7 55-18 37z"/>
  <path d="m5810 6508c-91-27-168-53-172-57-9-7-41-275-36-297 2-8 29-26 61-39 108-43 172-111 163-172l-4-31 46 16c41 14 44 16 27 26-50 27-121 113-134 159-47 166 70 327 239 327 33 0 60 3 60 6 0 15-66 114-75 113-5 0-84-23-175-51z"/>
  <path d="m2837 6484c-44-23-48-28-45-57 3-32 3-32 93-49 132-26 143-23 181 41 18 30 31 58 29 61-3 4-37 10-77 14s-86 9-103 11c-20 3-47-4-78-21z"/>
  <path d="m3133 6420-41-70 36-9c20-5 118-28 217-51 99-22 302-69 450-103l270-63 11-34 11-35 167-29c91-16 167-28 169-25 1 2 0 58-3 124l-5 120-100 17c-195 32-173 33-189-7l-15-35-58 6c-37 4-75 17-104 34-37 23-106 40-369 93-322 66-323 66-360 102-20 19-38 35-40 35-3-1-24-32-47-70z"/>
  <path d="m11447 6293c-79-104-230-300-335-438-105-137-192-253-192-256 0-8 118-25 265-39 420-39 923 33 1198 171 45 23 68 44 111 102 89 121 87 96 21 248-57 134-72 155-111 165-14 4-127-60-395-224-206-126-375-228-377-227-2 2 87 142 197 311 133 204 196 311 188 315-14 7-195 36-274 44-29 3-75 7-102 10l-50 6z"/>
  <path d="m5910 6409c-25-11-58-32-73-47-109-103-93-290 31-372 61-40 73-41 158-9 45 17 52 24 62 58 16 52 17 51-26 51-53 0-133 25-160 50-67 62 9 118 186 138l64 7-32 60c-17 33-38 66-47 73-26 19-112 14-163-9z"/>
  <path d="m2775 6270c-16-5-137-34-268-65l-237-58 6-106c4-58 8-108 10-110 4-4 335 83 803 210 79 21 151 39 160 39 42 1-27 21-206 59-198 42-218 45-268 31z"/>
  <path d="m6010 6254c-109-36-136-60-105-94 25-27 91-50 153-53l54-2 25 63c34 83 29 92-49 91-35 0-70-3-78-5z"/>
  <path d="m4434 6195c-8-56 4-193 18-201 13-8 145-34 174-34 15 0 24 8 28 24 9 38 64 86 140 122 39 19 77 34 85 34 41 0-16 15-195 50-110 22-209 42-221 45-19 4-23 0-29-40z"/>
  <path d="m5005 6154c-185-33-316-103-339-181-8-25-30-18 242-68 106-19 276-45 378-56l184-22 90 39c50 21 89 41 88 45-2 3-19 41-38 83l-35 77-51-5c-27-3-63-8-80-12-28-5-30-3-52 55l-24 61-141-1c-78 0-178-7-222-15z"/>
  <path d="m3565 6138c-2-7-20-69-39-137-20-68-37-126-39-128-3-2-7 29-11 69-18 194-17 190-41 184-12-3-55-21-97-40l-76-35-6-73c-6-78-9-146-31-763-21-572-53-1387-61-1542l-7-133h158v78c0 91 18 162 51 197 23 25 23 29 24 256 1 221 1 232-22 277-44 90-33 300 18 342 11 10 14 59 16 264l3 251 2-247c3-229 5-246 21-241 22 5 56-30 77-79l15-38-34-14c-36-15-66-59-66-96 0-39 27-86 58-101l31-15-18-35c-11-22-29-37-49-44l-32-9v-438l30-29c38-39 54-94 54-196l1-83h70v103c0 88 3 107 23 140l22 38 1 522c1 287 5 536 10 552 4 17 7-216 5-522-1-317 1-553 6-553s19-21 31-47c17-38 21-68 22-140v-93h143l4 138c3 110 8 145 23 177 18 36 21 69 25 315l5 275 3-272c2-251 4-274 22-305 26-44 44-175 36-260l-6-68h102l-6 108c-4 59-13 490-22 957-9 468-19 978-22 1135l-7 285-113 29c-62 16-115 27-118 24-4-5-19-119-45-353-6-55-14-107-17-115-4-8-9 97-12 234l-5 249-52 29c-40 23-54 27-58 16zm-161-445c4-9 8-41 10-72s2-45-1-31c-9 48-21 42-28-14-11-82-1-226 15-236 8-5 10-17 6-36-7-27-8-28-21-10-8 10-17 43-21 72-8 64 0 301 11 327 9 22 21 22 29 0zm440-252c23-26 52-121 65-212 14-106 24-296 14-283-4 7-8-47-9-120-1-139-18-236-53-305-26-51-46-57-76-26-29 32-50 114-71 280-37 291 21 685 101 685 7 0 20-9 29-19zm-327-62c49-103 31-509-23-509-8 0-23 17-32 38-25 55-25 409 0 465 19 42 36 44 55 6z"/>
  <path d="m3786 5078c-31-49-41-113-41-278 0-169 13-246 49-295 14-19 15-19 34-2 55 50 76 303 40 487-19 102-51 136-82 88z"/>
  <path d="m3472 5258c-6-24-9-101-7-173 3-180 31-244 55-128 13 60 9 294-5 326-13 30-33 19-43-25z"/>
  <path d="m13220 6146c0-3 24-85 54-184l54-179-80-329-81-329-102-130-7-180c-4-100-8-243-10-320l-3-139 110-42-2-102-1-101-61-72c-33-40-59-74-57-76s39 10 82 27c43 16 85 30 94 30 8 0 40-24 71-53l57-52 77-305c42-168 79-307 82-310s2 20-1 50c-12 102-46 494-46 521 0 25 7 30 87 58 47 18 89 28 93 24s33-74 64-154l57-145-25-230c-14-126-31-285-38-353-12-122-13-124-43-143-16-10-35-18-41-18-5 0-25 32-44 70-19 39-37 70-40 70-8 0-20-151-20-241v-58l-36-10c-66-18-97-65-78-116 8-20 76-55 108-55 28 0 25 14 53-250l18-165 65-16c88-22 129-40 168-77 80-75 5-178-150-207-21-4-38-8-38-9 0-2 55-245 151-666 22-96 44-196 50-222l10-47 57-11c31-7 66-14 77-16 15-4 28 6 52 40 28 39 32 54 34 118 2 58-2 81-18 113-33 63-37 137-18 285l18 131 50 34c37 25 60 52 93 110l44 77-11 76c-13 99-14 102-44 135-23 24-33 27-90 27-35 0-67 5-71 11-3 6 7 25 24 42 43 46 52 69 52 130 0 87-61 157-149 171-23 3-41 8-41 11s-21 122-46 265l-45 259 31 243c17 134 37 289 44 346l14 102-44 207-43 207-201 201v76c0 65 4 82 25 113 23 34 211 518 290 746 18 52 81 230 139 394 58 165 105 301 103 302-1 1-110-221-242-494l-240-497-154-172c-84-95-157-173-161-173s-36 88-73 195l-66 194 175 523c96 288 174 523 174 524 0 2-109-32-131-41-13-5-39 23-109 114-84 111-100 129-100 117zm761-3809c66-44 89-139 49-205-79-130-280-74-280 78 0 119 134 192 231 127z"/>
  <path d="m2010 6093c-113-24-254-54-315-67l-110-23 1-126c0-70 2-129 5-132 3-2 154 35 335 84l329 88 3 79c4 102-4 144-26 143-9-1-109-21-222-46z"/>
  <path d="m5676 5998c31-62 57-114 59-116 5-6 60 20 67 31 20 31 8 77-30 115-34 34-117 82-142 82-6 0 15-51 46-112z"/>
  <path d="m687 6025c-3-11-8-41-12-67l-6-46-74-7c-41-4-75-11-75-15 0-8 280-193 285-188 1 2-23 80-55 173-38 113-59 163-63 150z"/>
  <path d="m3070 5994c0-44-74-1666-86-1881l-7-121 71-36c39-20 73-36 75-36 6 0 14 249 33 930 8 305 19 688 24 850s6 298 2 302-31 10-59 14l-53 7z"/>
  <path d="m1162 5958c-34-93-34-94-9-131 14-21 29-65 37-111 7-42 18-76 24-76s90 22 186 48c154 42 175 50 173 67-2 11-6 71-9 133-6 96-9 112-23 108-62-19-256-55-262-49-4 5-9 19-11 33-3 22-9 25-45 28l-41 3z"/>
  <path d="m4037 5709c2-167 8-629 12-1027 5-397 11-725 14-728 6-6 126 12 134 20 3 2-2 202-11 443s-23 625-31 853c-20 572-27 720-35 725-4 2-25 7-47 11l-41 6z"/>
  <path d="m14350 5871c-23-6-25-14-41-141-10-74-18-146-18-159-2-48-10-14-21 79-23 208-7 223-141-130-314-827-313-824-310-865 3-64 9-75 42-75h29v65c0 73 15 115 41 115 24 0 42-61 38-128-4-55 1-62 46-62 22 0 35 17 35 47 0 8 7 29 15 47 11 22 18 89 24 231l8 200 1-205c2-143 6-210 14-218 6-6 14-31 17-54 5-33 11-44 26-46 19-3 20 3 20 160 0 147 3 169 23 221 14 34 36 66 53 79l29 22v178c0 98 3 178 8 178 4 0 6-81 4-180-3-154-1-180 11-180 41 0 105-138 108-234 4-117 19 112 29 444 6 201 13 422 17 493l6 127-44-1c-24-1-55-4-69-8z"/>
  <path d="m12320 5684c-306-136-867-190-1303-126l-119 18-19-28-20-27 219-110 219-109 38-92c25-60 46-95 59-101 45-19 468-130 479-126 7 2 126 164 266 358 140 195 259 360 264 367 14 17 1 14-83-24z"/>
  <path d="m10753 5272c-44-22-53-31-53-53 0-14-7-46-15-69s-15-46-15-51 22-9 48-9c90 0 149-26 217-93 75-75 100-136 99-243 0-59-5-82-31-135-18-35-45-77-62-93l-30-28 37-55c36-55 36-55 81-50 26 2 89 16 141 30 52 15 124 29 160 33 97 8 110 12 110 34 0 18 1 18 53 1l52-18 8-61c8-58 7-63-20-97l-28-35-6 67-5 68-2-86c-2-94-18-157-35-140-5 5-12 65-15 132l-5 122-78-6c-133-11-319-65-319-94 0-8 35-55 77-104l77-89 135 5c148 4 143 0-11-10-54-4-98-11-98-15 0-5 21-32 46-62 25-29 109-154 186-278s142-227 144-229c7-8 194 20 264 40 38 10 95 30 126 44 56 25 57 26 36 41s-22 20-22 236v222l30-29c19-18 30-39 30-56 0-18 6-30 19-34 31-10 109-100 119-139 42-152-208-305-553-338-16-2-29-8-28-14 1-5 69-118 150-250 89-143 167-280 193-341 24-57 45-103 47-103 12 0 55 28 112 74 71 57 162 165 211 252l33 57-22 96c-19 83-86 532-107 719-6 58-11 68-55 116-79 86-212 172-347 222l-64 24 106-114 106-115v-442l-24 18c-31 23-36 49-36 198 0 131-7 185-22 185-7 0-8-59-3-167l8-167-41 32c-47 38-52 39-52 12 0-30-27-91-52-117-29-32-71-30-97 4-12 14-19 28-16 31 2 3 14-7 26-21 39-51 86-24 114 67 9 28 25 80 37 116 55 164 8 375-99 441-34 21-94 23-135 5-16-7-18-2-18 43 0 60-4 59 121 32 114-26 228-71 317-125 39-25 72-43 72-40s-30 43-67 89c-62 76-84 94-251 204l-183 121-94 11-95 10-30-34c-25-29-41-37-95-47-36-7-68-10-70-8-3 3-15 43-27 89-20 79-20 86-5 121l16 38 108-5c59-3 127-8 151-10l43-5-18 23c-10 13-69 80-132 150l-114 127h-47c-39 0-75 13-199 75-84 41-155 75-159 74-4 0-31-12-59-27zm965-922c44-27 89-100 103-168 14-69 7-215-12-261l-15-35-38 35-37 34-6 153c-5 125-9 152-21 152-13 0-14-19-8-135 4-74 4-135 0-135s-21 12-37 28l-29 27 4-110c2-60 10-120 17-132 7-14 8-23 2-23-18 0-35 83-36 177-1 50-6 97-12 105-7 7-13 69-15 148l-3 134 25 13c36 18 80 16 118-7zm-158-141v-110l-30 21c-26 19-30 27-30 71 0 28 5 60 11 72 12 22 39 57 46 57 1 0 3-50 3-111z"/>
  <path d="m10669 5064c-10-3-28-37-44-82-16-42-31-84-34-92s25 9 62 38c37 30 67 51 67 47 0-3-20-40-45-83-25-42-45-80-45-85 0-7 142-240 155-255 1-1 17 3 35 10 31 10 35 9 55-16l22-27 35 39c106 118 101 309-12 422-23 23-61 50-84 61-43 19-138 32-167 23z"/>
  <path d="m14290 4933c0-75 4-111 14-122 24-29 36-82 36-163 0-76 1-79 22-76 18 2 24 12 31 48 12 65 2 246-17 307-16 51-58 113-77 113-5 0-9-48-9-107z"/>
  <path d="m14241 5003c-39-48-56-128-56-258 0-129 8-175 29-175 10 0 15 25 18 99 3 65 10 108 20 123 17 26 34 238 19 238-5 0-19-12-30-27z"/>
  <path d="m14408 4631c-7-52-5-71 8-59 3 3 4 30 2 59l-3 54z"/>
  <path d="m12056 3943c-9-109-8-263 3-263 15 0 101 82 116 111 31 58 8 134-58 191-52 44-54 43-61-39z"/>
  <path d="m12684 3765c-31-76-49-239-39-355 4-44 11-80 16-80s9 30 9 68c0 72 24 137 50 137 21 0 49-88 50-155 0-39 3-51 10-40 13 20 13 238-1 320-20 126-65 176-95 105z"/>
  <path d="m13321 3290c-1-8 5-47 13-87 13-69 13-73-8-102-11-17-24-31-28-31-5 0-40 33-79 73-39 39-65 61-57 47s53-85 99-159l83-134 17 94c24 129 22 163-11 244-16 39-29 63-29 55z"/>
  <path d="m12354 3161c-64-115-185-245-297-321-20-14-37-28-37-32 0-3 14-37 31-75 34-74 34-75 153-933 32-223 60-416 64-429 8-23 9-22 45 26 33 45 41 69 75 229 61 280 87 319 312 471 70 47 77 55 92 104 11 36 14 74 11 116-5 55-10 67-52 117-37 45-77 80-149 132-2 1 6 17 17 35 15 24 21 51 21 90 0 47-5 63-31 98-30 43-94 80-136 81-19 0-25 15-61 163l-39 162zm197-346c118-77 72-263-69-282-52-7-124 19-152 54-46 58-45 150 2 200 59 65 147 76 219 28z"/>
  <path d="m13574 2064c4-38 12-98 18-132l10-64 37 7c56 9 144 57 160 86 22 40 7 76-45 109-25 15-69 34-97 40-29 6-60 14-71 17-17 5-18 1-12-63z"/>
  <path d="m12073 2081c5-41-7-75-139-389-79-190-144-351-144-359 0-7 7-16 15-19 17-7 22-99 5-109-19-11-10-25 16-25 40 0 62 17 89 70 14 28 28 50 31 50s4-6 1-13c-9-23 19-136 38-157 10-11 30-20 45-20 23 0 32 10 70 86 32 63 51 89 74 101 17 8 32 17 34 18 2 2-6 54-17 116-11 63-41 242-66 399-26 157-49 287-52 290s-3-15 0-39z"/>
  <path d="m13578 1270c-2-397-1-479 11-502s13-29 1-43c-12-15-12-19 5-31 10-8 36-14 57-14h38v60c0 56 2 60 23 60 36 0 46-13 49-65 3-48 5-51 48-72 29-14 55-20 73-16 25 5 27 9 27 51 0 26-7 65-16 89-14 37-22 44-65 58-58 20-41-35-154 485-47 217-87 400-89 405-2 6-6-204-8-465z"/>
  <path d="m7539 1718c-22-9-22-9 14-46 68-70 73-126 22-245-19-45-34-96-33-114 0-17-11-54-26-82-14-28-26-63-26-78 0-14-4-40-9-57-32-110-41-148-45-206-3-36-8-82-12-104-4-21-2-55 4-75s21-74 33-121 36-115 55-151c19-39 31-75 28-87-7-24 12-56 78-133 26-31 48-63 48-70 0-30 45-67 88-74l43-7-4 39c-2 21-18 61-35 88-17 28-32 63-32 78s-7 42-16 58c-21 42-62 224-69 306-2 23-7 48-11 54-10 17-5 134 8 189 5 25 12 74 13 110 6 119 33 241 75 335 4 11 11 32 14 46s16 41 29 60c12 19 28 52 34 74 12 40 68 125 83 125 10 0 55-66 71-105 7-16 24-43 37-59s36-54 51-85c60-120 75-147 98-174 13-16 23-42 23-58s7-46 16-67c17-41 44-172 44-215 0-15 10-41 22-57 20-28 21-36 15-182-6-159-21-224-68-289-10-15-19-36-19-48 0-11-13-35-28-53-16-18-36-46-44-63-8-16-23-44-34-62-23-39-14-50 28-32 38 15 82 62 99 104 7 17 28 47 46 68 18 20 33 42 33 48 0 5 15 43 34 82 30 66 54 136 86 257 18 68 16 306-3 328-8 9-17 46-20 82-7 74-68 257-104 310-12 19-23 41-23 49s-12 33-27 55c-24 34-28 51-31 128l-4 88h25c26 0 63 27 52 39-10 9-700 8-726-1z"/>
  <path d="m7800 42c0-5 7-16 16-23 14-12 16-11 13 5-4 20-29 35-29 18z"/>
 </g>
</svg>
